<?xml version="1.0" encoding="utf-8"?>
<!-- Generator: Adobe Illustrator 24.0.0, SVG Export Plug-In . SVG Version: 6.00 Build 0)  -->
<svg version="1.1" xmlns="http://www.w3.org/2000/svg" xmlns:xlink="http://www.w3.org/1999/xlink" x="0px" y="0px"
	 viewBox="0 0 750 500" style="enable-background:new 0 0 750 500;" xml:space="preserve">
<style type="text/css">
	.st0{fill:#F49E21;}
	.st1{fill:#F5B21E;}
	.st2{fill:#F4A721;}
	.st3{opacity:0.6;}
	.st4{fill:#D1D3D4;}
	.st5{clip-path:url(#SVGID_2_);}
	.st6{fill:#F5D65A;}
	.st7{fill:#FFFFFF;}
	.st8{fill:#414042;}
	.st9{fill:#FFFFFF;stroke:#414042;stroke-width:3;stroke-miterlimit:10;}
</style>
<g id="BACKGROUND">
	<rect y="-0.72" class="st0" width="750" height="500"/>
</g>
<g id="OBJECTS">
	<g>
		<path class="st1" d="M750,142.35v356.93H0V142.35C51.46,79.56,118.39,29.93,194.97-0.72h360.06
			C631.61,29.93,698.54,79.56,750,142.35z"/>
		<g>
			<path class="st2" d="M26.61,498.94c0,0,48.85-65.55-9.23-133.21c0,0,90.55-37.73,26.36-133.73c0,0,90.03,24.93,118.67-35.55
				c19.72-49.72,0-117.34,0-117.34s33.81,67.36,83.59,67.96c64.7,0,82.96-75.01,82.96-75.01s10.03,59.64,77.65,60.58
				c67.62,0.94,121.16-101.44,121.16-101.44s-20.66,107.07,30.06,148.4c50.72,41.33,114.42,10.33,114.42,10.33
				s-29.89,68.99-10.17,106.34c19.72,37.36,60.88,34.54,60.88,34.54s-36.06,74.84,10.7,121.65c0,0-30.25,15.22-27.43,46.81
				L26.61,498.94z"/>
			<path class="st2" d="M694.13,466.41c0,11.1-0.57,22.06-1.68,32.87H57.13c-1.11-10.81-1.68-21.77-1.68-32.87
				c0-176.37,142.97-319.34,319.34-319.34S694.13,290.04,694.13,466.41z"/>
		</g>
		<g class="st3">
			<path class="st4" d="M509.91,479.04c0.1,2.22,0.14,4.48,0.14,6.78c0,4.53-0.22,9.02-0.63,13.46H750v-31.59L509.91,479.04z
				 M242.6,458.7L0,410.13v84.76l239.99-5.67c-0.02-1.12-0.04-2.26-0.04-3.4C239.95,476.57,240.85,467.45,242.6,458.7z
				 M494.23,422.13c4.68,8.69,8.37,17.9,10.99,27.34L750,381.7v-97.37L494.23,422.13z M0,204.27v113.54l251.56,112.93
				c4.07-9.08,9.2-17.75,15.25-25.81L0,204.27z M731.4-0.72L454.55,376.63c8.2,6.02,15.78,12.99,22.47,20.68L750,159.64V-0.72H731.4
				z M120.9-0.72H0v44.91l287.74,338.54c7.71-6.57,16.14-12.25,25.02-16.89L120.9-0.72z M466.97-0.72l-66.42,353.81
				c9.65,1.81,19.1,4.72,28.1,8.63L586.12-0.72H466.97z M357.46-0.72h-111.2l93.92,355.91c9.55-2.53,19.55-3.97,29.71-4.34
				L357.46-0.72z"/>
		</g>
		<g>
			<defs>
				<rect id="SVGID_1_" y="-0.72" width="750" height="500"/>
			</defs>
			<clipPath id="SVGID_2_">
				<use xlink:href="#SVGID_1_"  style="overflow:visible;"/>
			</clipPath>
			<g class="st5">
				<polygon class="st0" points="655.43,115.85 767.61,-18.87 757.22,-26.89 				"/>
				<polygon class="st0" points="662.82,172.83 791.33,53.6 782.05,44.32 				"/>
				<polygon class="st6" points="656.23,344.02 781.04,296.28 775.75,284.26 				"/>
				<polygon class="st0" points="693.33,295.84 812.84,236.07 806.4,224.63 				"/>
				<polygon class="st0" points="674.06,47.92 786.24,-86.79 775.84,-94.81 				"/>
				<polygon class="st0" points="482.85,114.23 543.28,-50.34 530.79,-54.4 				"/>
				<polygon class="st6" points="602.28,67.98 661.97,-27.02 635.71,-39.12 				"/>
				<polygon class="st2" points="434.39,65.6 461.05,-43.38 432.31,-46.58 				"/>
				<polygon class="st2" points="674.2,251.05 776.13,204.71 760.76,180.5 				"/>
				<polygon class="st6" points="708.61,196.66 803.09,136.72 784.49,114.86 				"/>
				<polygon class="st0" points="66.18,84.21 -55.77,-41.74 -46.01,-50.51 				"/>
				<polygon class="st0" points="111.44,188.6 -13.48,65.6 -3.92,56.6 				"/>
				<polygon class="st2" points="42.31,323.41 -82.49,275.66 -77.2,263.65 				"/>
				<polygon class="st0" points="109.43,317.5 -10.09,257.74 -3.64,246.3 				"/>
				<polygon class="st6" points="138.07,115.47 25.88,-19.25 43.57,-27.27 				"/>
				<polygon class="st0" points="292.57,74.32 232.14,-90.24 244.63,-94.3 				"/>
				<polygon class="st2" points="166.36,65.79 106.66,-29.21 132.93,-41.32 				"/>
				<polygon class="st6" points="329.64,97.33 306.54,-12.05 328.17,-14.45 				"/>
				<polygon class="st6" points="78.87,251.05 -23.07,204.71 -7.69,180.5 				"/>
				<polygon class="st2" points="43.8,177.23 -50.69,117.29 -32.09,95.44 				"/>
			</g>
		</g>
		<g>
			<g>
				<path class="st6" d="M107.12,499.02c0,0,37.58-50.43-7.1-102.47c0,0,69.65-29.02,20.27-102.87c0,0,69.26,19.17,91.28-27.35
					c15.17-38.24,0-90.26,0-90.26s26.01,51.82,64.3,52.28c49.77,0,63.81-57.7,63.81-57.7s7.71,45.88,59.73,46.6
					s93.2-78.03,93.2-78.03s-15.89,82.36,23.12,114.15c39.01,31.79,88.02,7.95,88.02,7.95s-22.99,53.07-7.82,81.8
					c15.17,28.74,46.83,26.57,46.83,26.57s-27.74,57.57,8.23,93.58c0,0-23.27,11.7-21.1,36.01L107.12,499.02z"/>
				<path class="st6" d="M620.6,474c0,8.54-0.44,16.97-1.29,25.28h-488.7c-0.85-8.32-1.29-16.75-1.29-25.28
					c0-135.67,109.98-245.64,245.64-245.64S620.6,338.33,620.6,474z"/>
			</g>
			<g>
				<path class="st0" d="M399.87,499.28h-18.78c1.42-3.79,5.1-6.55,9.36-6.57C394.77,492.69,398.47,495.42,399.87,499.28z"/>
				<path class="st0" d="M418.34,499.28H404.3c1.83-1.81,4.34-2.95,7.06-2.93C414.08,496.37,416.55,497.49,418.34,499.28z"/>
				<path class="st0" d="M379.5,499.11v0.17h-19.95v-0.09c-0.02-5.56,4.49-10.09,10-10.04C374.98,489.2,379.47,493.69,379.5,499.11z
					"/>
				<path class="st0" d="M358.51,495.41c-0.01,1.38-0.29,2.69-0.79,3.87h-18.09c-0.54-1.22-0.83-2.57-0.82-3.99
					c0.03-5.37,4.46-9.79,9.83-9.81C354.12,485.46,358.54,489.9,358.51,495.41z"/>
				<path class="st0" d="M333.73,499.28c2.19-1.78,3.58-4.5,3.57-7.57c-0.02-5.39-4.28-9.6-9.67-9.59
					c-5.35,0.02-9.65,4.35-9.62,9.68c0.01,3.01,1.43,5.71,3.62,7.48H333.73z"/>
				<path class="st0" d="M403.7,481.91c0.01,5.4-4.22,9.64-9.62,9.62c-5.35-0.01-9.67-4.35-9.62-9.67c0.05-5.22,4.34-9.52,9.57-9.57
					C399.34,472.25,403.68,476.56,403.7,481.91z"/>
				<path class="st0" d="M382.86,478.1c0.02,5.36-4.32,9.71-9.63,9.66c-5.21-0.04-9.54-4.37-9.56-9.58
					c-0.03-5.31,4.32-9.64,9.68-9.61C378.65,468.6,382.85,472.8,382.86,478.1z"/>
				<path class="st0" d="M415.13,495.11c-5.4,0.01-9.62-4.25-9.59-9.65c0.03-5.26,4.31-9.53,9.55-9.55c5.28-0.01,9.7,4.43,9.64,9.7
					C424.68,490.87,420.4,495.11,415.13,495.11z"/>
				<path class="st0" d="M352.28,484c-5.3-0.01-9.53-4.28-9.48-9.57c0.05-5.17,4.31-9.38,9.49-9.38c5.28,0,9.51,4.29,9.46,9.59
					C361.69,479.87,357.51,484.01,352.28,484z"/>
				<path class="st0" d="M435.91,479.69c5.23-0.01,9.41,4.13,9.47,9.36c0.06,5.29-4.18,9.59-9.46,9.59c-5.26,0-9.53-4.31-9.49-9.58
					C426.48,483.86,430.69,479.7,435.91,479.69z"/>
				<path class="st0" d="M297.52,487.8c0.06-5.22,4.28-9.28,9.55-9.2c5.09,0.08,9.25,4.32,9.2,9.4c-0.04,5.15-4.4,9.43-9.51,9.35
					C301.57,497.28,297.46,493.03,297.52,487.8z"/>
				<path class="st0" d="M331.43,461.44c5.12-0.02,9.3,4.09,9.35,9.2c0.05,5.2-4.16,9.43-9.35,9.4c-5.14-0.04-9.24-4.16-9.25-9.3
					C322.18,465.63,326.32,461.46,331.43,461.44z"/>
				<path class="st0" d="M289.48,499.28h-14.42c1.71-2.1,4.33-3.44,7.26-3.42C285.2,495.88,287.77,497.21,289.48,499.28z"/>
				<path class="st0" d="M466.19,492.96c0,2.44-0.94,4.67-2.48,6.32h-13.57c-1.55-1.66-2.5-3.88-2.5-6.33
					c0-5.13,4.15-9.27,9.29-9.27C462.1,483.69,466.2,487.8,466.19,492.96z"/>
				<path class="st0" d="M397.92,451.76c5.06,0,9.17,4.05,9.22,9.09c0.06,5.06-4.17,9.33-9.24,9.32c-5.11,0-9.22-4.19-9.17-9.34
					C388.77,455.74,392.81,451.75,397.92,451.76z"/>
				<path class="st0" d="M376.99,448.18c5.07,0.03,9.08,4.1,9.06,9.2c-0.02,5.06-4.12,9.16-9.15,9.16c-5.06,0-9.32-4.32-9.21-9.35
					C367.8,452.13,371.91,448.15,376.99,448.18z"/>
				<path class="st0" d="M418.65,473.89c-5.08-0.02-9.09-4.08-9.09-9.17c0.01-5.06,4.09-9.17,9.12-9.19
					c5.05-0.02,9.33,4.29,9.24,9.33C427.83,469.91,423.72,473.91,418.65,473.89z"/>
				<path class="st0" d="M356.1,462.62c-5.06,0-9.13-4.11-9.08-9.18c0.05-5.01,4.06-8.98,9.07-8.98c5.08,0,9.14,4.1,9.09,9.17
					C365.13,458.59,361.06,462.62,356.1,462.62z"/>
				<path class="st0" d="M430.68,468.25c0.04-5.03,4.06-8.99,9.09-8.96c5.01,0.03,9.03,4.04,9.04,9.04
					c0.01,5.05-4.16,9.16-9.22,9.09C434.6,477.35,430.64,473.27,430.68,468.25z"/>
				<path class="st0" d="M301.44,467.2c-0.03-5.03,3.9-9.04,8.92-9.09c5.09-0.05,9.2,4.01,9.18,9.07c-0.02,4.95-4.1,9.02-9.06,9.03
					C305.5,476.21,301.48,472.2,301.44,467.2z"/>
				<path class="st0" d="M277.03,484.34c0-5.03,3.96-9.01,8.99-9.02c5.01-0.01,9.06,3.96,9.11,8.94c0.05,5.03-4.09,9.19-9.12,9.16
					C281.03,493.38,277.04,489.35,277.03,484.34z"/>
				<path class="st0" d="M486.79,496.66c-0.01,0.92-0.16,1.8-0.42,2.62h-17.23c-0.27-0.86-0.41-1.79-0.41-2.75
					c0.01-4.99,4.01-9.02,8.98-9.04C482.72,487.48,486.86,491.66,486.79,496.66z"/>
				<path class="st0" d="M270.08,499.28h-17.29c1.01-3.8,4.5-6.63,8.62-6.65C265.58,492.62,269.09,495.43,270.08,499.28z"/>
				<path class="st0" d="M343.99,449.94c0,4.9-3.97,8.89-8.87,8.91c-4.89,0.03-8.9-3.93-8.96-8.83c-0.07-4.96,4-9.03,8.98-9
					C340.04,441.05,343.99,445.03,343.99,449.94z"/>
				<path class="st0" d="M451.63,471.94c0-4.91,3.98-8.9,8.89-8.9c4.92-0.01,8.9,3.97,8.9,8.89c0,4.92-3.97,8.9-8.89,8.9
					C455.61,480.84,451.63,476.86,451.63,471.94z"/>
				<path class="st0" d="M392.76,440.16c-0.01-4.89,3.85-8.77,8.72-8.78c4.86-0.01,8.81,3.89,8.83,8.72
					c0.02,4.78-3.99,8.81-8.77,8.83C396.72,448.95,392.77,445.01,392.76,440.16z"/>
				<path class="st0" d="M298.39,463.42c-0.04,4.83-4.07,8.79-8.87,8.68c-4.75-0.1-8.63-4.03-8.63-8.76
					c-0.01-4.83,3.95-8.76,8.81-8.75C294.57,454.62,298.43,458.54,298.39,463.42z"/>
				<path class="st0" d="M380.61,445.05c-4.86-0.03-8.7-3.97-8.64-8.86c0.06-4.75,3.96-8.61,8.71-8.63
					c4.79-0.02,8.81,4.01,8.78,8.79C389.43,441.2,385.47,445.09,380.61,445.05z"/>
				<path class="st0" d="M507.2,499.28h-17.35c0.56-4.35,4.37-7.77,8.81-7.69C503.09,491.68,506.67,495,507.2,499.28z"/>
				<path class="st0" d="M431.24,443.66c0.03,4.85-3.87,8.81-8.71,8.83c-4.79,0.02-8.81-4.01-8.78-8.79
					c0.03-4.76,3.89-8.64,8.64-8.69C427.28,434.95,431.21,438.8,431.24,443.66z"/>
				<path class="st0" d="M256.36,480.48c0.03-4.74,3.91-8.61,8.65-8.63c4.85-0.02,8.75,3.9,8.72,8.75c-0.03,4.79-3.86,8.6-8.64,8.62
					C260.23,489.24,256.33,485.33,256.36,480.48z"/>
				<path class="st0" d="M314.36,454.78c-4.79,0.04-8.7-3.75-8.77-8.51c-0.07-4.84,3.86-8.83,8.69-8.82
					c4.78,0.01,8.62,3.85,8.64,8.64C322.95,450.89,319.16,454.74,314.36,454.78z"/>
				<path class="st0" d="M359.76,424.11c4.79,0.03,8.63,3.92,8.59,8.68c-0.04,4.74-3.99,8.63-8.72,8.59
					c-4.77-0.04-8.58-3.92-8.55-8.72C351.1,427.85,354.93,424.08,359.76,424.11z"/>
				<path class="st0" d="M481.39,484.37c-4.81,0.03-8.64-3.73-8.69-8.53c-0.04-4.87,3.84-8.79,8.68-8.77
					c4.73,0.02,8.62,3.93,8.62,8.66C490.01,480.5,486.18,484.34,481.39,484.37z"/>
				<path class="st0" d="M443.37,438.94c4.78,0.02,8.63,3.88,8.61,8.64c-0.02,4.72-3.97,8.63-8.68,8.61
					c-4.76-0.02-8.57-3.89-8.56-8.68C434.74,442.68,438.54,438.92,443.37,438.94z"/>
				<path class="st0" d="M248.92,497.77c0,0.52-0.05,1.02-0.14,1.51h-16.69c-0.1-0.53-0.15-1.07-0.14-1.63
					c0.05-4.63,3.81-8.36,8.45-8.38C245.13,489.25,248.93,493.03,248.92,497.77z"/>
				<path class="st0" d="M338.84,420.47c4.74-0.02,8.5,3.72,8.5,8.47c0,4.71-3.81,8.51-8.52,8.47c-4.61-0.03-8.38-3.78-8.42-8.39
					C330.35,424.31,334.12,420.49,338.84,420.47z"/>
				<path class="st0" d="M472.56,451.16c-0.02,4.76-3.79,8.47-8.57,8.4c-4.64-0.06-8.36-3.84-8.34-8.47c0.02-4.69,3.91-8.5,8.6-8.44
					C468.88,442.72,472.58,446.51,472.56,451.16z"/>
				<path class="st0" d="M277.22,459.81c-0.03,4.64-3.83,8.4-8.44,8.35c-4.59-0.05-8.4-3.93-8.35-8.49c0.05-4.62,3.84-8.33,8.49-8.3
					C273.59,451.4,277.25,455.11,277.22,459.81z"/>
				<path class="st0" d="M301.63,442.58c-0.02,4.64-3.81,8.41-8.42,8.37c-4.59-0.04-8.41-3.9-8.37-8.47
					c0.04-4.62,3.82-8.34,8.47-8.32C297.99,434.18,301.65,437.89,301.63,442.58z"/>
				<path class="st0" d="M494.01,479.37c-0.01-4.67,3.69-8.38,8.36-8.37c4.64,0.01,8.42,3.81,8.37,8.41
					c-0.05,4.52-3.79,8.26-8.31,8.32C497.83,487.79,494.02,484.01,494.01,479.37z"/>
				<path class="st0" d="M526.48,499.28h-13.85c1.51-2.25,4.06-3.72,6.95-3.71C522.42,495.58,524.97,497.06,526.48,499.28z"/>
				<path class="st0" d="M413.6,419.17c-0.02,4.54-3.74,8.24-8.29,8.24c-4.64,0-8.35-3.78-8.27-8.43c0.08-4.58,3.79-8.18,8.37-8.12
					C409.99,410.92,413.62,414.61,413.6,419.17z"/>
				<path class="st0" d="M252.5,476.88c0.04,4.58-3.57,8.26-8.15,8.32c-4.58,0.05-8.31-3.55-8.39-8.1
					c-0.08-4.62,3.66-8.44,8.27-8.44C248.79,468.65,252.46,472.3,252.5,476.88z"/>
				<path class="st0" d="M326.1,425.23c0.05,4.61-3.54,8.28-8.15,8.32c-4.6,0.04-8.31-3.58-8.36-8.14
					c-0.04-4.54,3.65-8.31,8.18-8.36C322.35,417,326.06,420.64,326.1,425.23z"/>
				<path class="st0" d="M426.11,431.14c-4.61,0-8.22-3.62-8.21-8.23c0.01-4.58,3.68-8.26,8.23-8.25c4.53,0.01,8.25,3.75,8.25,8.28
					C434.38,427.49,430.69,431.14,426.11,431.14z"/>
				<path class="st0" d="M485.12,446.52c4.63-0.01,8.25,3.62,8.23,8.25c-0.02,4.52-3.6,8.16-8.1,8.22
					c-4.53,0.06-8.33-3.65-8.37-8.19C476.84,450.24,480.52,446.53,485.12,446.52z"/>
				<path class="st0" d="M392.52,415.58c-0.03,4.58-3.73,8.24-8.28,8.2c-4.53-0.04-8.23-3.8-8.2-8.32c0.03-4.56,3.73-8.18,8.32-8.16
					C388.96,407.33,392.55,410.97,392.52,415.58z"/>
				<path class="st0" d="M371.63,411.66c0.02,4.53-3.53,8.15-8.04,8.19c-4.57,0.04-8.33-3.66-8.29-8.19
					c0.04-4.44,3.75-8.13,8.18-8.14C367.94,403.53,371.61,407.19,371.63,411.66z"/>
				<path class="st0" d="M438.79,426.6c-0.03-4.51,3.56-8.19,8.05-8.25c4.43-0.06,8.19,3.63,8.25,8.09c0.06,4.45-3.61,8.18-8.1,8.21
					C442.47,434.69,438.83,431.11,438.79,426.6z"/>
				<path class="st0" d="M280.46,438.66c0.03,4.49-3.44,8.02-7.9,8.07c-4.53,0.05-8.19-3.56-8.17-8.05
					c0.03-4.39,3.66-8.01,8.05-8.02C276.86,430.66,280.44,434.23,280.46,438.66z"/>
				<path class="st0" d="M227.62,494.19c0,1.93-0.69,3.71-1.83,5.09h-12.32c-1.18-1.41-1.89-3.21-1.88-5.16
					c0.02-4.43,3.63-7.97,8.08-7.96C224.15,486.18,227.63,489.7,227.62,494.19z"/>
				<path class="st0" d="M523.19,491.13c-4.49,0.01-8.01-3.48-8.02-7.96c-0.01-4.45,3.54-8.05,7.96-8.07
					c4.38-0.02,8.05,3.62,8.07,8.01C531.22,487.53,527.63,491.12,523.19,491.13z"/>
				<path class="st0" d="M342.53,400.14c4.47,0.02,7.95,3.55,7.93,8.03c-0.02,4.43-3.63,8.01-8.03,7.98
					c-4.38-0.04-8.01-3.72-7.98-8.08C334.48,403.65,338.09,400.12,342.53,400.14z"/>
				<path class="st0" d="M247.76,463.89c-4.46-0.03-7.93-3.6-7.88-8.09c0.05-4.34,3.6-7.87,7.94-7.88c4.36-0.02,8.06,3.69,8.03,8.05
					C255.83,460.38,252.22,463.92,247.76,463.89z"/>
				<path class="st0" d="M467.94,438.28c-4.48,0-7.98-3.52-7.97-8c0.02-4.43,3.66-8.04,8.05-7.97c4.3,0.06,7.88,3.66,7.92,7.96
					C475.99,434.67,472.38,438.28,467.94,438.28z"/>
				<path class="st0" d="M297.11,429.47c-4.47,0.02-8-3.49-7.99-7.96c0-4.43,3.61-8.03,8.01-7.99c4.29,0.04,7.88,3.61,7.94,7.91
					C305.13,425.81,301.54,429.45,297.11,429.47z"/>
				<path class="st0" d="M498,458.56c-0.01-4.47,3.51-7.98,7.98-7.97c4.43,0.01,8.03,3.64,7.97,8.03c-0.06,4.3-3.64,7.87-7.93,7.92
					C501.63,466.59,498.01,462.99,498,458.56z"/>
				<path class="st0" d="M223.3,465.37c4.28,0.03,7.74,3.48,7.76,7.74c0.02,4.29-3.6,7.9-7.89,7.86c-4.34-0.04-7.78-3.6-7.71-7.99
					C215.53,468.68,218.97,465.34,223.3,465.37z"/>
				<path class="st0" d="M313.91,404.22c0.04-4.32,3.48-7.69,7.81-7.67c4.29,0.02,7.78,3.5,7.77,7.76c0,4.31-3.68,7.92-7.97,7.82
					C317.25,412.04,313.87,408.53,313.91,404.22z"/>
				<path class="st0" d="M488.79,426.18c4.3,0.02,7.7,3.44,7.69,7.75c0,4.28-3.44,7.76-7.7,7.79c-4.29,0.03-7.92-3.63-7.84-7.9
					C481.01,429.56,484.51,426.16,488.79,426.18z"/>
				<path class="st0" d="M408.99,390.57c4.28,0.03,7.77,3.58,7.71,7.82c-0.07,4.25-3.65,7.76-7.87,7.71
					c-4.28-0.06-7.69-3.56-7.66-7.86C401.2,393.93,404.66,390.54,408.99,390.57z"/>
				<path class="st0" d="M422,401.98c-0.03-4.3,3.4-7.77,7.69-7.79c4.29-0.01,7.78,3.47,7.76,7.74c-0.02,4.19-3.41,7.62-7.61,7.71
					C425.59,409.73,422.03,406.26,422,401.98z"/>
				<path class="st0" d="M388.14,402.22c-4.3,0.01-7.75-3.43-7.75-7.73c0-4.28,3.52-7.77,7.78-7.72c4.2,0.05,7.61,3.45,7.67,7.65
					C395.9,398.68,392.41,402.21,388.14,402.22z"/>
				<path class="st0" d="M251.68,442.74c-4.23,0.02-7.65-3.33-7.7-7.53c-0.05-4.25,3.47-7.79,7.72-7.75
					c4.2,0.03,7.57,3.44,7.56,7.67C259.26,439.39,255.94,442.72,251.68,442.74z"/>
				<path class="st0" d="M283.67,417.99c-0.03,4.26-3.38,7.56-7.64,7.55c-4.22-0.01-7.62-3.39-7.64-7.59
					c-0.02-4.25,3.54-7.76,7.78-7.69C280.38,410.32,283.71,413.76,283.67,417.99z"/>
				<path class="st0" d="M367.19,383.32c4.21,0.04,7.61,3.5,7.55,7.69c-0.06,4.17-3.58,7.6-7.74,7.55c-4.2-0.06-7.54-3.51-7.5-7.74
					C359.54,386.56,362.91,383.28,367.19,383.32z"/>
				<path class="st0" d="M443.14,405.7c0.01-4.27,3.34-7.58,7.61-7.57c4.22,0.01,7.64,3.42,7.62,7.61c-0.01,4.17-3.5,7.63-7.66,7.62
					C446.51,413.35,443.13,409.93,443.14,405.7z"/>
				<path class="st0" d="M551.74,486.81c-0.03,4.25-3.38,7.54-7.65,7.51c-4.21-0.03-7.61-3.47-7.56-7.65
					c0.05-4.16,3.56-7.61,7.7-7.56C548.42,479.16,551.77,482.59,551.74,486.81z"/>
				<path class="st0" d="M534.54,462.24c-0.04,4.2-3.5,7.6-7.68,7.54c-4.16-0.06-7.6-3.59-7.54-7.73c0.06-4.2,3.51-7.53,7.73-7.49
					C531.3,454.6,534.58,457.97,534.54,462.24z"/>
				<path class="st0" d="M227.13,459.86c-4.17,0.04-7.56-3.24-7.62-7.38c-0.06-4.24,3.33-7.7,7.53-7.7c4.1,0,7.52,3.41,7.55,7.52
					C234.62,456.41,231.26,459.81,227.13,459.86z"/>
				<path class="st0" d="M300.75,408.22c-4.16,0.04-7.55-3.28-7.59-7.42c-0.04-4.16,3.26-7.54,7.42-7.6
					c4.12-0.06,7.55,3.29,7.6,7.43C308.23,404.76,304.89,408.18,300.75,408.22z"/>
				<path class="st0" d="M509.75,430.03c4.15,0.01,7.5,3.35,7.5,7.5c0,4.14-3.36,7.5-7.5,7.5c-4.15,0-7.49-3.34-7.5-7.5
					C502.25,433.39,505.61,430.02,509.75,430.03z"/>
				<path class="st0" d="M198.54,497.85c-4.13-0.04-7.45-3.44-7.42-7.58c0.04-4.14,3.43-7.46,7.58-7.41
					c4.15,0.04,7.47,3.44,7.42,7.58C206.06,494.59,202.69,497.89,198.54,497.85z"/>
				<path class="st0" d="M346.26,379.66c4.18-0.02,7.5,3.3,7.48,7.48c-0.02,4.09-3.26,7.39-7.33,7.45c-4.13,0.07-7.56-3.28-7.6-7.4
					C338.76,383.03,342.08,379.68,346.26,379.66z"/>
				<path class="st0" d="M478.97,409.24c0.04,4.19-3.23,7.5-7.41,7.51c-4.17,0.01-7.51-3.32-7.49-7.46
					c0.01-4.03,3.31-7.38,7.35-7.44C475.55,401.77,478.93,405.08,478.97,409.24z"/>
				<path class="st0" d="M332.52,383.6c-0.05,4.04-3.25,7.18-7.29,7.16c-4.01-0.02-7.23-3.25-7.23-7.24c0-4.06,3.36-7.36,7.42-7.28
					C329.41,376.3,332.57,379.58,332.52,383.6z"/>
				<path class="st0" d="M209.69,469.48c0.03,4.04-3.12,7.26-7.16,7.33c-4.09,0.07-7.42-3.23-7.39-7.31
					c0.02-3.99,3.28-7.24,7.27-7.24C206.42,462.24,209.66,465.47,209.69,469.48z"/>
				<path class="st0" d="M499.76,413.21c-0.04,4.04-3.25,7.17-7.31,7.12c-4.01-0.04-7.22-3.32-7.16-7.31
					c0.06-3.97,3.39-7.22,7.35-7.16C496.63,405.91,499.8,409.18,499.76,413.21z"/>
				<path class="st0" d="M262.46,414.27c0.02,4.06-3.12,7.24-7.17,7.26c-4.02,0.02-7.28-3.18-7.31-7.17
					c-0.03-3.96,3.25-7.28,7.21-7.3C259.19,407.03,262.44,410.25,262.46,414.27z"/>
				<path class="st0" d="M554.94,466.05c-0.05,4.05-3.26,7.14-7.35,7.07c-3.92-0.07-7.08-3.28-7.07-7.2
					c0.01-3.95,3.36-7.26,7.3-7.22C551.82,458.74,554.99,462.02,554.94,466.05z"/>
				<path class="st0" d="M230.56,438.69c-4.03-0.04-7.14-3.24-7.08-7.3c0.05-3.91,3.25-7.07,7.15-7.08
					c3.93-0.01,7.26,3.33,7.23,7.26C237.83,435.54,234.57,438.73,230.56,438.69z"/>
				<path class="st0" d="M564.96,483.41c3.96-0.01,7.12,3.12,7.15,7.08c0.03,4.03-3.25,7.31-7.23,7.24
					c-3.89-0.06-7.13-3.35-7.09-7.22C557.82,486.58,561.02,483.42,564.96,483.41z"/>
				<path class="st0" d="M537.69,441.26c0.03,3.95-3.08,7.16-7.02,7.25c-3.92,0.09-7.33-3.28-7.3-7.22c0.03-3.93,3.23-7.1,7.17-7.1
					C534.5,434.18,537.67,437.31,537.69,441.26z"/>
				<path class="st0" d="M412.5,370.17c3.96,0,7.12,3.13,7.14,7.08c0.02,4.02-3.26,7.3-7.23,7.24c-3.89-0.07-7.12-3.36-7.09-7.23
					C405.37,373.33,408.56,370.17,412.5,370.17z"/>
				<path class="st0" d="M279.82,404.26c-3.96-0.02-7.09-3.14-7.11-7.09c-0.02-4.02,3.21-7.29,7.19-7.26
					c3.87,0.03,7.12,3.27,7.16,7.14C287.1,401.02,283.84,404.28,279.82,404.26z"/>
				<path class="st0" d="M391.76,366.58c3.93,0.03,7.07,3.19,7.06,7.13c0,3.92-3.17,7.11-7.08,7.15c-3.94,0.04-7.28-3.34-7.19-7.27
					C384.63,369.66,387.83,366.55,391.76,366.58z"/>
				<path class="st0" d="M433.56,388.22c-3.95,0.02-7.14-3.13-7.16-7.07c-0.02-3.94,3.14-7.15,7.07-7.19
					c3.9-0.04,7.16,3.19,7.19,7.1C440.69,384.98,437.49,388.2,433.56,388.22z"/>
				<path class="st0" d="M461.33,384.69c0.01,3.94-3.18,7.12-7.08,7.07c-3.81-0.05-6.96-3.22-6.97-7.03
					c-0.01-3.91,3.18-7.06,7.13-7.03C458.29,377.73,461.32,380.79,461.33,384.69z"/>
				<path class="st0" d="M370.87,362.9c3.95-0.01,7.12,3.17,7.08,7.08c-0.05,3.81-3.22,6.96-7.03,6.98
					c-3.91,0.02-7.06-3.18-7.03-7.13C363.92,365.94,366.98,362.9,370.87,362.9z"/>
				<path class="st0" d="M297.5,379.84c0.03-3.9,3.12-6.93,7.04-6.9c3.86,0.03,7,3.21,6.95,7.04c-0.05,3.82-3.29,6.99-7.09,6.95
					C300.55,386.88,297.47,383.72,297.5,379.84z"/>
				<path class="st0" d="M199.05,448.63c0.04-3.89,3.13-6.91,7.03-6.88c3.85,0.02,6.99,3.16,6.98,6.98
					c-0.01,3.88-3.32,7.12-7.18,7.03C202.04,455.67,199.01,452.51,199.05,448.63z"/>
				<path class="st0" d="M506.4,416.71c0-3.89,3.07-6.95,6.96-6.94c3.86,0.01,7.01,3.14,7,6.96c-0.01,3.79-3.23,7-7.01,7
					C509.52,423.72,506.4,420.57,506.4,416.71z"/>
				<path class="st0" d="M184.74,486.69c0.03,3.87-3.12,7.04-6.96,7c-3.77-0.03-6.86-3.12-6.9-6.89c-0.04-3.84,3.11-6.99,6.98-6.98
					C181.65,479.85,184.71,482.9,184.74,486.69z"/>
				<path class="st0" d="M356.78,366.38c-0.04,3.79-3.13,6.82-6.93,6.8c-3.81-0.02-6.84-3.07-6.85-6.87
					c-0.01-3.87,3.14-6.98,7.02-6.91C353.79,359.47,356.82,362.6,356.78,366.38z"/>
				<path class="st0" d="M475.26,395.4c-3.76-0.03-6.83-3.14-6.82-6.91c0.01-3.79,3.06-6.84,6.86-6.85c3.89-0.01,6.97,3.1,6.9,6.99
					C482.14,392.43,479.06,395.43,475.26,395.4z"/>
				<path class="st0" d="M265.6,393.25c0.03,3.73-2.92,6.78-6.63,6.87c-3.71,0.08-6.94-3.11-6.92-6.83c0.03-3.7,3.06-6.71,6.79-6.72
					C262.59,386.55,265.57,389.49,265.6,393.25z"/>
				<path class="st0" d="M241.19,410.55c-0.01,3.72-3.03,6.76-6.73,6.77c-3.65,0.02-6.77-3.06-6.82-6.73
					c-0.05-3.76,3.07-6.85,6.88-6.82C238.27,403.8,241.2,406.78,241.19,410.55z"/>
				<path class="st0" d="M544.85,444.9c0.02-3.73,3.01-6.7,6.75-6.69c3.71,0.01,6.73,3.05,6.71,6.75c-0.02,3.69-3.1,6.74-6.78,6.72
					C547.82,451.65,544.83,448.61,544.85,444.9z"/>
				<path class="st0" d="M568.73,476.26c-3.73-0.02-6.7-3.02-6.68-6.76c0.02-3.71,3.06-6.73,6.76-6.71
					c3.68,0.02,6.74,3.11,6.71,6.79C575.49,473.29,572.45,476.28,568.73,476.26z"/>
				<path class="st0" d="M329,369.39c-3.7-0.04-6.68-3.1-6.62-6.81c0.06-3.71,3.13-6.64,6.86-6.56c3.66,0.09,6.52,3.03,6.51,6.69
					C335.73,366.45,332.72,369.42,329,369.39z"/>
				<path class="st0" d="M188.09,465.83c0.05,3.73-2.9,6.77-6.62,6.8c-3.7,0.03-6.74-2.98-6.75-6.68c0-3.64,2.87-6.59,6.53-6.68
					C184.99,459.17,188.03,462.1,188.09,465.83z"/>
				<path class="st0" d="M290.07,376.18c-0.03,3.7-2.94,6.55-6.65,6.54c-3.67-0.02-6.62-2.95-6.63-6.6
					c-0.01-3.69,3.1-6.75,6.79-6.68C287.24,369.51,290.11,372.5,290.07,376.18z"/>
				<path class="st0" d="M496.05,398.72c-3.7-0.04-6.54-2.95-6.51-6.67c0.03-3.67,2.97-6.61,6.62-6.61c3.69,0,6.74,3.13,6.66,6.81
					C502.72,395.91,499.73,398.76,496.05,398.72z"/>
				<path class="st0" d="M209.92,434.33c-3.69,0.04-6.67-2.82-6.75-6.47c-0.08-3.69,2.97-6.8,6.67-6.8c3.64,0,6.59,2.95,6.61,6.62
					C216.46,431.39,213.62,434.3,209.92,434.33z"/>
				<path class="st0" d="M540.93,420.3c0.01,3.67-2.91,6.64-6.55,6.65c-3.59,0.01-6.63-3.01-6.65-6.6c-0.02-3.63,2.94-6.59,6.6-6.6
					C538.03,413.74,540.92,416.6,540.93,420.3z"/>
				<path class="st0" d="M592.55,494.23c-0.03,3.69-2.94,6.53-6.66,6.49c-3.66-0.04-6.6-3.03-6.55-6.66c0.06-3.6,3.13-6.6,6.71-6.55
					C589.7,487.57,592.58,490.55,592.55,494.23z"/>
				<path class="st0" d="M422.82,356.56c-0.03,3.58-2.94,6.45-6.53,6.44c-3.58-0.01-6.49-2.9-6.51-6.48
					c-0.02-3.64,3.01-6.64,6.64-6.56C420.01,350.05,422.85,352.98,422.82,356.56z"/>
				<path class="st0" d="M401.75,352.68c0,3.62-2.82,6.46-6.44,6.47c-3.59,0.01-6.49-2.87-6.49-6.44c-0.01-3.56,2.91-6.48,6.47-6.49
					C398.86,346.2,401.75,349.09,401.75,352.68z"/>
				<path class="st0" d="M430.67,360.05c0.03-3.62,2.89-6.43,6.51-6.4c3.58,0.03,6.46,2.94,6.43,6.51
					c-0.03,3.56-2.97,6.45-6.53,6.43C433.5,366.55,430.64,363.63,430.67,360.05z"/>
				<path class="st0" d="M185.25,438.53c3.63,0.02,6.4,2.84,6.36,6.49c-0.04,3.5-2.86,6.33-6.34,6.36c-3.52,0.03-6.5-2.91-6.51-6.44
					C178.76,441.39,181.66,438.51,185.25,438.53z"/>
				<path class="st0" d="M380.85,349.01c0.03,3.57-2.7,6.38-6.24,6.44c-3.61,0.06-6.56-2.82-6.54-6.39
					c0.02-3.45,2.94-6.37,6.39-6.39C377.95,342.66,380.82,345.51,380.85,349.01z"/>
				<path class="st0" d="M308.1,352.54c3.55,0.02,6.32,2.8,6.33,6.35c0.01,3.52-2.8,6.38-6.3,6.43c-3.51,0.05-6.54-3-6.48-6.5
					C301.71,355.31,304.58,352.52,308.1,352.54z"/>
				<path class="st0" d="M464.49,363.97c-0.03,3.55-2.83,6.3-6.38,6.29c-3.51-0.01-6.37-2.84-6.39-6.33
					c-0.02-3.52,3.04-6.53,6.54-6.44C461.75,357.57,464.52,360.44,464.49,363.97z"/>
				<path class="st0" d="M517.2,402.27c-3.56,0.02-6.36-2.73-6.4-6.27c-0.04-3.61,2.86-6.55,6.42-6.51
					c3.45,0.04,6.36,2.98,6.36,6.42C523.56,399.41,520.71,402.25,517.2,402.27z"/>
				<path class="st0" d="M244.34,389.76c-0.03,3.52-2.93,6.33-6.45,6.24c-3.45-0.09-6.18-2.91-6.14-6.35
					c0.04-3.45,2.81-6.22,6.25-6.24C241.51,383.39,244.37,386.25,244.34,389.76z"/>
				<path class="st0" d="M578.63,448.71c0.01,3.53-2.82,6.35-6.33,6.31c-3.41-0.04-6.19-2.85-6.21-6.25
					c-0.02-3.51,2.82-6.32,6.35-6.28C575.9,442.51,578.62,445.25,578.63,448.71z"/>
				<path class="st0" d="M219.65,406.93c0,3.49-2.7,6.2-6.19,6.21c-3.47,0.01-6.25-2.71-6.3-6.14c-0.05-3.48,2.85-6.38,6.33-6.35
					C216.93,400.68,219.66,403.46,219.65,406.93z"/>
				<path class="st0" d="M150.59,483.14c0-3.49,2.7-6.2,6.18-6.22c3.47-0.02,6.26,2.7,6.31,6.13c0.05,3.48-2.84,6.39-6.32,6.36
					C153.32,489.38,150.59,486.61,150.59,483.14z"/>
				<path class="st0" d="M268.87,372.55c-0.02,3.48-2.74,6.18-6.23,6.17c-3.46-0.01-6.24-2.75-6.26-6.18
					c-0.02-3.48,2.89-6.37,6.37-6.31C266.19,366.29,268.89,369.08,268.87,372.55z"/>
				<path class="st0" d="M347.49,345.51c-0.01-3.49,2.7-6.22,6.19-6.21c3.47,0,6.26,2.76,6.26,6.19c0.01,3.4-2.83,6.25-6.23,6.26
					C350.27,351.75,347.5,348.97,347.49,345.51z"/>
				<path class="st0" d="M472.76,367.44c0.02-3.47,2.75-6.15,6.24-6.12c3.44,0.03,6.22,2.84,6.17,6.24
					c-0.04,3.38-2.92,6.2-6.29,6.17C475.47,373.7,472.74,370.9,472.76,367.44z"/>
				<path class="st0" d="M595.76,473.41c-0.03,3.47-2.77,6.14-6.25,6.1c-3.43-0.04-6.21-2.86-6.16-6.26
					c0.05-3.38,2.94-6.2,6.31-6.15C593.07,467.15,595.78,469.96,595.76,473.41z"/>
				<path class="st0" d="M561.34,424.16c-0.01,3.47-2.74,6.16-6.22,6.14c-3.44-0.02-6.22-2.82-6.19-6.22
					c0.03-3.38,2.9-6.21,6.27-6.19C558.62,417.91,561.36,420.71,561.34,424.16z"/>
				<path class="st0" d="M194.87,424.03c0.05,3.39-2.64,6.15-6.01,6.17c-3.35,0.02-6.12-2.73-6.12-6.08c0-3.3,2.63-5.97,5.93-6.04
					C192.09,418,194.82,420.63,194.87,424.03z"/>
				<path class="st0" d="M293.28,355.26c0.02,3.4-2.71,6.14-6.08,6.1c-3.27-0.04-5.98-2.76-6-6.02c-0.02-3.38,2.71-6.09,6.12-6.06
					C290.67,349.31,293.26,351.91,293.28,355.26z"/>
				<path class="st0" d="M154.59,462.14c0-3.44,2.68-6.07,6.13-6.02c3.31,0.05,5.96,2.72,5.96,6.02c0,3.34-2.82,6.12-6.16,6.06
					C157.21,468.14,154.59,465.46,154.59,462.14z"/>
				<path class="st0" d="M612.84,497.99c0,0.45-0.05,0.88-0.15,1.29h-11.75c-0.09-0.44-0.14-0.9-0.14-1.37
					c0.01-3.31,2.65-5.97,5.93-6.01C610.05,491.87,612.86,494.68,612.84,497.99z"/>
				<path class="st0" d="M537.96,405.5c-3.43,0-6.03-2.65-5.99-6.1c0.04-3.3,2.72-5.94,6-5.94c3.32,0,6.1,2.84,6.04,6.15
					C543.94,402.9,541.27,405.51,537.96,405.5z"/>
				<path class="st0" d="M326.71,341.73c-0.01-3.35,2.56-5.97,5.89-6.01c3.4-0.04,6.15,2.69,6.11,6.04
					c-0.04,3.25-2.8,5.97-6.04,5.96C329.38,347.7,326.72,345.03,326.71,341.73z"/>
				<path class="st0" d="M500.15,365.33c3.29,0.09,5.92,2.85,5.83,6.12c-0.1,3.25-2.89,5.94-6.12,5.88
					c-3.37-0.07-5.98-2.86-5.87-6.27C494.09,367.74,496.78,365.24,500.15,365.33z"/>
				<path class="st0" d="M425.66,335.54c-0.02,3.15-2.56,5.72-5.7,5.75c-3.16,0.03-5.88-2.68-5.85-5.85
					c0.03-3.21,2.69-5.77,5.95-5.7C423.22,329.8,425.68,332.35,425.66,335.54z"/>
				<path class="st0" d="M211.48,385.91c0-3.19,2.47-5.71,5.65-5.76c3.25-0.05,5.91,2.54,5.9,5.74c0,3.17-2.74,5.87-5.9,5.8
					C214,391.65,211.49,389.07,211.48,385.91z"/>
				<path class="st0" d="M241.74,362.96c3.14,0.05,5.69,2.62,5.69,5.74c0,3.17-2.74,5.86-5.89,5.79c-3.22-0.07-5.73-2.74-5.64-5.99
					C235.99,365.35,238.56,362.91,241.74,362.96z"/>
				<path class="st0" d="M164.17,447.05c-3.15-0.02-5.72-2.59-5.72-5.72c0-3.11,2.58-5.73,5.7-5.77c3.2-0.04,5.82,2.61,5.78,5.85
					C169.9,444.58,167.34,447.08,164.17,447.05z"/>
				<path class="st0" d="M404.83,331.81c0.03,3.16-2.45,5.75-5.6,5.83c-3.17,0.09-5.9-2.6-5.88-5.79c0.01-3.13,2.58-5.69,5.73-5.7
					C402.25,326.15,404.8,328.65,404.83,331.81z"/>
				<path class="st0" d="M446.68,339.28c0.01,3.13-2.55,5.7-5.7,5.73c-3.17,0.03-5.74-2.47-5.78-5.62c-0.05-3.24,2.56-5.9,5.77-5.87
					C444.08,333.56,446.67,336.16,446.68,339.28z"/>
				<path class="st0" d="M311.79,343.8c-3.15-0.04-5.71-2.66-5.66-5.79c0.06-3.15,2.69-5.71,5.82-5.66
					c3.16,0.05,5.67,2.65,5.63,5.82C317.55,341.33,314.97,343.84,311.79,343.8z"/>
				<path class="st0" d="M576.27,433.44c-3.17,0.05-5.77-2.46-5.81-5.62c-0.05-3.17,2.46-5.77,5.62-5.84
					c3.12-0.06,5.77,2.49,5.84,5.64C581.98,430.76,579.43,433.39,576.27,433.44z"/>
				<path class="st0" d="M593.42,446.62c3.16,0.02,5.73,2.62,5.7,5.76c-0.03,3.15-2.65,5.72-5.78,5.7
					c-3.15-0.03-5.69-2.62-5.67-5.78C587.69,449.13,590.25,446.6,593.42,446.62z"/>
				<path class="st0" d="M520.81,369.23c3.17,0.03,5.69,2.61,5.64,5.78c-0.05,3.15-2.68,5.66-5.84,5.59
					c-3.08-0.07-5.53-2.59-5.53-5.69C515.08,371.72,517.62,369.2,520.81,369.23z"/>
				<path class="st0" d="M137.97,499.28h-11.16c0.5-2.62,2.81-4.6,5.56-4.62C135.16,494.65,137.48,496.64,137.97,499.28z"/>
				<path class="st0" d="M266.09,357.08c-3.13-0.07-5.48-2.55-5.42-5.71c0.05-3.08,2.6-5.57,5.66-5.53
					c3.12,0.04,5.71,2.76,5.57,5.86C271.76,354.79,269.21,357.15,266.09,357.08z"/>
				<path class="st0" d="M198.28,403.03c0.05,3.06-2.41,5.61-5.47,5.69c-3.23,0.08-5.75-2.32-5.79-5.53
					c-0.04-3.1,2.36-5.63,5.43-5.73C195.55,397.35,198.23,399.91,198.28,403.03z"/>
				<path class="st0" d="M383.7,328.46c-0.08,3.19-2.65,5.56-5.89,5.43c-3.06-0.12-5.48-2.73-5.37-5.79
					c0.11-3.04,2.7-5.52,5.73-5.47C381.32,322.67,383.78,325.27,383.7,328.46z"/>
				<path class="st0" d="M461.79,337.3c3.14,0.03,5.54,2.46,5.53,5.6c0,3.1-2.48,5.61-5.55,5.63c-3.11,0.02-5.75-2.65-5.68-5.75
					C456.15,339.7,458.68,337.27,461.79,337.3z"/>
				<path class="st0" d="M616.15,476.98c-0.01,3.09-2.54,5.61-5.59,5.59c-3.03-0.02-5.61-2.63-5.59-5.65
					c0.02-3.07,2.55-5.55,5.65-5.53C613.75,471.39,616.16,473.84,616.15,476.98z"/>
				<path class="st0" d="M564.53,403.12c-0.01,3.13-2.44,5.56-5.58,5.55c-3.09-0.01-5.61-2.52-5.6-5.58
					c0.01-3.02,2.61-5.61,5.63-5.6C562.04,397.5,564.54,400.03,564.53,403.12z"/>
				<path class="st0" d="M136.01,484.88c-2.98,0.01-5.48-2.43-5.55-5.43c-0.07-3.07,2.44-5.62,5.52-5.63c3.02,0,5.47,2.39,5.53,5.4
					C141.57,482.32,139.09,484.87,136.01,484.88z"/>
				<path class="st0" d="M488.18,346.6c0.04,3.05-2.33,5.52-5.36,5.57c-3,0.05-5.52-2.39-5.57-5.38c-0.05-3.02,2.34-5.49,5.38-5.54
					C485.7,341.19,488.14,343.55,488.18,346.6z"/>
				<path class="st0" d="M357.31,319c3,0.01,5.47,2.49,5.46,5.49c0,3.02-2.44,5.44-5.49,5.44c-3.06,0-5.45-2.41-5.44-5.47
					C351.85,321.42,354.28,318.99,357.31,319z"/>
				<path class="st0" d="M168.01,414.97c2.95,0,5.37,2.37,5.4,5.29c0.03,2.95-2.55,5.51-5.49,5.45c-2.93-0.06-5.27-2.49-5.25-5.44
					C162.69,417.3,165.03,414.98,168.01,414.97z"/>
				<path class="st0" d="M285.53,334.27c0-2.97,2.37-5.32,5.34-5.32c2.95,0.01,5.36,2.42,5.35,5.34c-0.01,2.91-2.46,5.36-5.38,5.35
					C287.93,339.65,285.53,337.23,285.53,334.27z"/>
				<path class="st0" d="M632.59,499.28H623c0.85-1.81,2.69-3.05,4.84-3.04C629.94,496.26,631.75,497.5,632.59,499.28z"/>
				<path class="st0" d="M547.09,378.74c-0.03,2.93-2.44,5.3-5.37,5.28c-2.92-0.02-5.29-2.43-5.27-5.37
					c0.02-2.94,2.41-5.29,5.35-5.27C544.73,373.41,547.12,375.83,547.09,378.74z"/>
				<path class="st0" d="M139.6,453.28c2.99,0,5.31,2.37,5.25,5.37c-0.06,2.88-2.39,5.18-5.27,5.17c-2.94,0-5.33-2.45-5.27-5.39
					C134.37,455.56,136.72,453.27,139.6,453.28z"/>
				<path class="st0" d="M336.52,326.14c-2.83,0.02-5.24-2.33-5.29-5.16c-0.06-2.86,2.23-5.23,5.11-5.3
					c3.03-0.07,5.35,2.2,5.35,5.21C341.68,323.78,339.38,326.11,336.52,326.14z"/>
				<path class="st0" d="M503.56,355.47c-2.93,0.01-5.19-2.24-5.19-5.17c0-2.9,2.3-5.23,5.17-5.24c2.82-0.01,5.24,2.4,5.24,5.22
					C508.79,353.14,506.45,355.46,503.56,355.47z"/>
				<path class="st0" d="M220.93,370.25c-2.9,0.04-5.27-2.25-5.31-5.11c-0.03-2.81,2.4-5.26,5.22-5.26c2.79,0,5.09,2.27,5.15,5.07
					C226.06,367.89,223.84,370.21,220.93,370.25z"/>
				<path class="st0" d="M602.12,431.45c0.03,2.93-2.24,5.22-5.17,5.21c-2.81-0.01-5.1-2.27-5.15-5.07
					c-0.05-2.82,2.39-5.27,5.21-5.25C599.8,426.36,602.09,428.65,602.12,431.45z"/>
				<path class="st0" d="M245.47,353.01c-2.89,0.01-5.18-2.3-5.15-5.19c0.03-2.79,2.3-5.05,5.09-5.07c2.84-0.02,5.23,2.39,5.17,5.21
					C250.54,350.75,248.26,353,245.47,353.01z"/>
				<path class="st0" d="M196.13,387.42c-2.88-0.05-5.12-2.41-5.03-5.31c0.09-2.77,2.44-5.01,5.21-4.95
					c2.78,0.06,5.05,2.37,5.05,5.13C201.37,385.15,199.01,387.47,196.13,387.42z"/>
				<path class="st0" d="M579.84,411.96c-2.84,0.04-5.09-2.15-5.11-4.99c-0.03-2.82,2.2-5.11,4.99-5.14
					c2.79-0.03,5.1,2.23,5.14,5.01C584.9,409.64,582.66,411.93,579.84,411.96z"/>
				<path class="st0" d="M619.27,456.08c0.03,2.79-2.22,5.07-5.03,5.1c-2.84,0.03-5.08-2.17-5.1-5.01c-0.02-2.82,2.21-5.1,5-5.12
					C616.94,451.03,619.24,453.29,619.27,456.08z"/>
				<path class="st0" d="M143.35,432.59c2.77-0.03,4.97,2.13,5,4.88c0.02,2.75-2.16,5.01-4.88,5.04c-2.68,0.04-5-2.24-5.04-4.93
					C138.37,434.88,140.6,432.62,143.35,432.59z"/>
				<path class="st0" d="M320.37,317.29c-0.11,2.72-2.44,4.84-5.16,4.68c-2.66-0.15-4.71-2.35-4.64-5c0.07-2.73,2.33-4.87,5.06-4.79
					C318.35,312.26,320.48,314.56,320.37,317.29z"/>
				<path class="st0" d="M423.66,309.78c2.73-0.03,4.96,2.16,4.96,4.89c0,2.73-2.22,4.93-4.95,4.91c-2.65-0.02-4.8-2.15-4.86-4.8
					C418.76,312.06,420.94,309.81,423.66,309.78z"/>
				<path class="st0" d="M524.54,349.19c2.73-0.01,4.94,2.22,4.92,4.94c-0.02,2.73-2.26,4.91-4.99,4.86
					c-2.64-0.04-4.78-2.2-4.81-4.84C519.62,351.43,521.81,349.2,524.54,349.19z"/>
				<path class="st0" d="M269.99,325.78c2.73-0.03,4.96,2.16,4.96,4.89c0,2.73-2.22,4.93-4.95,4.91c-2.65-0.02-4.8-2.15-4.86-4.8
					C265.1,328.06,267.28,325.81,269.99,325.78z"/>
				<path class="st0" d="M176.52,399.55c-0.02,2.73-2.27,4.92-4.99,4.87c-2.73-0.05-4.88-2.3-4.81-5.04
					c0.07-2.64,2.24-4.76,4.89-4.76C174.33,394.6,176.54,396.82,176.52,399.55z"/>
				<path class="st0" d="M631.49,485.56c-2.69,0.05-4.87-2.01-4.96-4.67c-0.09-2.69,2.15-5,4.86-5.01c2.66,0,4.79,2.13,4.82,4.81
					C636.23,483.41,634.2,485.51,631.49,485.56z"/>
				<path class="st0" d="M449.34,318.37c-0.04,2.71-2.14,4.74-4.86,4.72c-2.68-0.02-4.81-2.15-4.81-4.81c0-2.7,2.31-4.94,5-4.86
					C447.32,313.5,449.38,315.68,449.34,318.37z"/>
				<path class="st0" d="M402.77,315.89c-2.72,0.03-4.82-2-4.88-4.71c-0.05-2.77,2.13-4.99,4.86-4.97c2.62,0.03,4.81,2.23,4.82,4.85
					C407.58,313.72,405.45,315.86,402.77,315.89z"/>
				<path class="st0" d="M562.61,387.12c-2.68,0.02-4.85-2.07-4.9-4.73c-0.05-2.7,2.22-4.98,4.92-4.95
					c2.66,0.03,4.76,2.19,4.76,4.87C567.38,385.03,565.32,387.1,562.61,387.12z"/>
				<path class="st0" d="M116.23,496.51c0.01,1.02-0.31,1.98-0.88,2.77h-7.91c-0.52-0.76-0.82-1.68-0.83-2.68
					c-0.02-2.72,2.03-4.81,4.74-4.83C114.03,491.75,116.2,493.86,116.23,496.51z"/>
				<path class="st0" d="M460.81,322.17c-0.04-2.61,1.99-4.73,4.58-4.8c2.67-0.07,4.89,2.08,4.88,4.73
					c-0.01,2.56-2.15,4.71-4.71,4.73C462.99,326.84,460.85,324.75,460.81,322.17z"/>
				<path class="st0" d="M381.92,302.56c2.59,0.01,4.7,2.11,4.72,4.69c0.02,2.55-2.1,4.73-4.67,4.77c-2.65,0.05-4.83-2.15-4.8-4.82
					C377.22,304.6,379.31,302.55,381.92,302.56z"/>
				<path class="st0" d="M115.29,480.32c-2.59,0.04-4.61-1.88-4.67-4.44c-0.06-2.64,2-4.78,4.59-4.77c2.47,0.01,4.59,2.11,4.62,4.59
					C119.85,478.21,117.82,480.28,115.29,480.32z"/>
				<path class="st0" d="M147.05,412.19c2.55,0.02,4.53,2.07,4.48,4.63c-0.05,2.45-2.04,4.44-4.48,4.47
					c-2.48,0.03-4.62-2.08-4.62-4.57C142.43,414.22,144.51,412.17,147.05,412.19z"/>
				<path class="st0" d="M490.87,325.7c-0.01,2.55-2.05,4.55-4.6,4.51c-2.45-0.04-4.45-2.02-4.5-4.45
					c-0.05-2.48,2.05-4.62,4.54-4.65C488.81,321.09,490.88,323.17,490.87,325.7z"/>
				<path class="st0" d="M360.82,308.2c-2.55-0.03-4.52-2.09-4.46-4.65c0.06-2.45,2.07-4.44,4.5-4.45c2.48-0.02,4.61,2.1,4.6,4.59
					C365.45,306.2,363.36,308.23,360.82,308.2z"/>
				<path class="st0" d="M294.76,317.94c-2.48,0.05-4.49-1.85-4.56-4.33c-0.07-2.46,1.83-4.52,4.28-4.62
					c2.52-0.11,4.65,1.92,4.67,4.44C299.17,315.89,297.22,317.89,294.76,317.94z"/>
				<path class="st0" d="M549.83,357.62c0.04,2.46-1.89,4.5-4.34,4.57c-2.52,0.07-4.63-1.98-4.62-4.5c0.01-2.45,1.99-4.43,4.45-4.45
					C547.81,353.21,549.79,355.14,549.83,357.62z"/>
				<path class="st0" d="M200.07,356.83c2.48,0.02,4.43,1.98,4.43,4.46c0,2.46-1.96,4.46-4.42,4.49c-2.52,0.03-4.59-2.06-4.54-4.58
					C195.59,358.76,197.6,356.81,200.07,356.83z"/>
				<path class="st0" d="M224.47,339.62c2.48,0.02,4.43,1.98,4.44,4.46c0.01,2.46-1.96,4.46-4.41,4.5c-2.52,0.04-4.6-2.05-4.55-4.57
					C219.99,341.56,222,339.61,224.47,339.62z"/>
				<path class="st0" d="M596.4,410.59c-0.04-2.53,1.85-4.46,4.37-4.46c2.48-0.01,4.48,1.98,4.46,4.42
					c-0.02,2.33-1.98,4.34-4.32,4.41C598.47,415.04,596.43,413.06,596.4,410.59z"/>
				<path class="st0" d="M618,439.51c-2.52,0-4.42-1.92-4.39-4.44c0.02-2.4,1.91-4.33,4.29-4.39c2.4-0.06,4.51,1.98,4.54,4.39
					C622.47,437.51,620.47,439.51,618,439.51z"/>
				<path class="st0" d="M123.13,454.71c0.01,2.42-1.86,4.33-4.26,4.37c-2.47,0.04-4.51-1.98-4.46-4.41
					c0.05-2.33,2.09-4.33,4.41-4.31C121.19,450.37,123.12,452.32,123.13,454.71z"/>
				<path class="st0" d="M171.08,378.58c-0.04-2.42,1.81-4.35,4.21-4.41c2.48-0.06,4.52,1.92,4.51,4.36
					c-0.02,2.33-2.03,4.34-4.36,4.36C173.08,382.9,171.11,380.96,171.08,378.58z"/>
				<path class="st0" d="M587.86,385.87c0.02,2.4-1.9,4.34-4.29,4.33c-2.38-0.01-4.31-1.96-4.29-4.35c0.03-2.31,1.88-4.18,4.2-4.23
					C585.88,381.57,587.84,383.46,587.86,385.87z"/>
				<path class="st0" d="M639.48,459.78c-0.03,2.4-1.98,4.3-4.38,4.24c-2.31-0.05-4.17-1.93-4.19-4.23
					c-0.02-2.38,1.9-4.34,4.29-4.35C637.58,455.44,639.51,457.38,639.48,459.78z"/>
				<path class="st0" d="M507.35,333.78c-2.39,0.01-4.31-1.94-4.29-4.34c0.02-2.33,1.85-4.18,4.18-4.24
					c2.39-0.06,4.37,1.84,4.39,4.23C511.67,331.82,509.74,333.77,507.35,333.78z"/>
				<path class="st0" d="M253.33,326.93c-0.03,2.4-1.98,4.3-4.38,4.24c-2.31-0.05-4.17-1.93-4.19-4.23
					c-0.02-2.38,1.9-4.34,4.29-4.35C251.43,322.58,253.35,324.53,253.33,326.93z"/>
				<path class="st0" d="M344.37,299.8c0.04,2.38-1.88,4.35-4.26,4.37c-2.39,0.02-4.32-1.91-4.31-4.31
					c0.01-2.33,1.83-4.19,4.16-4.26C342.35,295.52,344.34,297.41,344.37,299.8z"/>
				<path class="st0" d="M150.72,391.72c2.31-0.04,4.06,1.67,4.07,3.96c0.01,2.26-1.78,4.08-4.01,4.07
					c-2.11-0.01-3.94-1.79-4.02-3.91C146.68,393.63,148.47,391.76,150.72,391.72z"/>
				<path class="st0" d="M273.62,305.7c2.23-0.02,3.95,1.64,4.01,3.85c0.06,2.28-1.71,4.14-3.95,4.16c-2.19,0.02-4.1-1.91-4.06-4.1
					C269.67,307.44,271.44,305.71,273.62,305.7z"/>
				<path class="st0" d="M126.37,433.89c0.02,2.23-1.64,3.95-3.85,4.01c-2.28,0.06-4.14-1.71-4.16-3.95
					c-0.02-2.19,1.91-4.1,4.1-4.06C124.63,429.94,126.36,431.7,126.37,433.89z"/>
				<path class="st0" d="M652.47,480.37c2.11,0.04,3.92,1.88,3.92,3.99c-0.01,2.21-1.89,4-4.14,3.92c-2.18-0.08-3.83-1.84-3.77-4.04
					C648.52,482.09,650.34,480.33,652.47,480.37z"/>
				<path class="st0" d="M570.35,361.56c-0.04,2.14-1.84,3.88-3.99,3.87c-2.27-0.01-4-1.82-3.92-4.1c0.08-2.14,1.93-3.89,4.05-3.81
					C568.61,357.6,570.39,359.46,570.35,361.56z"/>
				<path class="st0" d="M323.21,296.35c-0.04,2.19-1.77,3.87-3.97,3.85c-2.15-0.02-3.93-1.79-3.94-3.92
					c-0.01-2.18,1.95-4.08,4.11-3.99C321.56,292.38,323.25,294.19,323.21,296.35z"/>
				<path class="st0" d="M532.08,333.14c-0.03,2.19-1.78,3.89-3.98,3.86c-2.16-0.03-3.94-1.84-3.9-3.98
					c0.04-2.14,1.89-3.94,4.02-3.9C530.37,329.16,532.11,330.98,532.08,333.14z"/>
				<path class="st0" d="M427.35,290.03c2.11,0.02,3.81,1.69,3.84,3.77c0.03,2.15-1.75,3.95-3.9,3.94c-2.16-0.01-3.87-1.81-3.81-4
					C423.54,291.62,425.22,290.01,427.35,290.03z"/>
				<path class="st0" d="M406.44,286.24c2.04-0.04,3.85,1.7,3.9,3.75c0.05,2.08-1.64,3.82-3.75,3.86c-2.16,0.04-3.82-1.56-3.86-3.7
					C402.7,288.01,404.34,286.28,406.44,286.24z"/>
				<path class="st0" d="M448.24,301.3c-2.05-0.05-3.79-1.87-3.75-3.91c0.05-2.09,1.78-3.73,3.9-3.7c2.15,0.04,3.74,1.7,3.7,3.86
					C452.06,299.66,450.32,301.36,448.24,301.3z"/>
				<path class="st0" d="M94.3,493.05c-0.05,2.03-1.68,3.62-3.72,3.62c-2.1,0-3.82-1.75-3.75-3.82c0.06-1.98,1.78-3.65,3.75-3.65
					C92.67,489.2,94.35,490.94,94.3,493.05z"/>
				<path class="st0" d="M203.68,344.2c-2.04,0.03-3.71-1.57-3.76-3.6c-0.06-2.11,1.66-3.86,3.75-3.84
					c2.01,0.03,3.68,1.72,3.69,3.72C207.36,342.5,205.71,344.17,203.68,344.2z"/>
				<path class="st0" d="M389.17,286.37c0.05,2.01-1.6,3.73-3.61,3.76c-1.95,0.03-3.58-1.51-3.68-3.46c-0.1-2.1,1.4-3.75,3.48-3.83
					C387.41,282.77,389.11,284.34,389.17,286.37z"/>
				<path class="st0" d="M472.8,301.12c-0.03,2.03-1.72,3.63-3.77,3.58c-2.08-0.05-3.6-1.69-3.52-3.79
					c0.07-1.96,1.68-3.51,3.63-3.51C471.15,297.41,472.83,299.11,472.8,301.12z"/>
				<path class="st0" d="M625.26,414.3c0.01,2.03-1.65,3.66-3.7,3.65c-2.01-0.02-3.54-1.52-3.6-3.52c-0.06-2.05,1.54-3.74,3.57-3.78
					C623.54,410.61,625.25,412.29,625.26,414.3z"/>
				<path class="st0" d="M182.68,357.62c0.05,1.99-1.63,3.71-3.62,3.73c-1.94,0.02-3.56-1.52-3.64-3.47
					c-0.09-2.09,1.41-3.73,3.48-3.79C180.94,354.02,182.63,355.6,182.68,357.62z"/>
				<path class="st0" d="M228.28,326.92c-1.94,0.02-3.56-1.54-3.63-3.5c-0.07-2.1,1.47-3.71,3.55-3.73
					c1.97-0.02,3.59,1.51,3.67,3.45C231.96,325.12,230.27,326.9,228.28,326.92z"/>
				<path class="st0" d="M638.84,435.39c1.97,0.01,3.58,1.64,3.56,3.57c-0.02,1.91-1.72,3.58-3.62,3.56
					c-1.95-0.02-3.53-1.65-3.51-3.62C635.28,436.9,636.83,435.37,638.84,435.39z"/>
				<path class="st0" d="M607.97,389.94c-0.15,1.93-1.93,3.49-3.81,3.35c-1.97-0.15-3.42-1.82-3.31-3.81
					c0.11-1.98,1.76-3.43,3.77-3.31C606.56,386.28,608.12,388.03,607.97,389.94z"/>
				<path class="st0" d="M126.19,409.42c1.89-0.01,3.44,1.49,3.5,3.39c0.06,1.97-1.52,3.6-3.49,3.61c-1.89,0-3.45-1.51-3.5-3.39
					C122.65,411.06,124.22,409.43,126.19,409.42z"/>
				<path class="st0" d="M94.14,475.44c-1.96-0.03-3.52-1.68-3.45-3.64c0.07-1.88,1.65-3.38,3.54-3.35
					c1.97,0.03,3.53,1.68,3.45,3.64C97.59,473.98,96.03,475.47,94.14,475.44z"/>
				<path class="st0" d="M364.74,286.11c-1.84,0.02-3.45-1.54-3.49-3.38c-0.04-1.86,1.49-3.42,3.38-3.44
					c1.95-0.03,3.42,1.4,3.44,3.34C368.1,284.53,366.61,286.08,364.74,286.11z"/>
				<path class="st0" d="M549.22,333.45c1.87,0.03,3.36,1.59,3.33,3.5c-0.03,1.94-1.5,3.36-3.45,3.33
					c-1.89-0.03-3.42-1.59-3.38-3.45C545.77,334.97,547.38,333.42,549.22,333.45z"/>
				<path class="st0" d="M490.22,301.43c1.85,0.05,3.4,1.68,3.36,3.51c-0.04,1.87-1.6,3.35-3.51,3.31
					c-1.94-0.04-3.35-1.52-3.31-3.47C486.79,302.9,488.36,301.38,490.22,301.43z"/>
				<path class="st0" d="M301.65,292.53c-0.03,1.94-1.51,3.36-3.45,3.33c-1.89-0.03-3.42-1.6-3.37-3.46c0.05-1.85,1.66-3.4,3.5-3.37
					C300.2,289.06,301.68,290.62,301.65,292.53z"/>
				<path class="st0" d="M154.31,371.55c1.77-0.06,3.36,1.41,3.45,3.2c0.09,1.78-1.35,3.36-3.15,3.46
					c-1.92,0.11-3.49-1.36-3.52-3.27C151.07,373.13,152.5,371.61,154.31,371.55z"/>
				<path class="st0" d="M256.18,306.01c0.04,1.79-1.41,3.31-3.21,3.38c-1.82,0.06-3.34-1.33-3.42-3.14
					c-0.09-1.89,1.41-3.48,3.29-3.5C254.61,302.73,256.14,304.22,256.18,306.01z"/>
				<path class="st0" d="M659.27,463.55c-0.01,1.82-1.52,3.26-3.38,3.21c-1.79-0.06-3.12-1.44-3.11-3.24
					c0.01-1.77,1.39-3.2,3.14-3.24C657.72,460.23,659.28,461.76,659.27,463.55z"/>
				<path class="st0" d="M587.11,361.83c1.79-0.04,3.34,1.49,3.33,3.29c-0.01,1.75-1.42,3.16-3.19,3.19
					c-1.8,0.04-3.21-1.27-3.29-3.05C583.88,363.4,585.29,361.87,587.11,361.83z"/>
				<path class="st0" d="M101.12,451.1c0.02,1.78-1.33,3.16-3.11,3.18c-1.75,0.02-3.2-1.38-3.22-3.11c-0.02-1.69,1.46-3.2,3.15-3.22
					C99.67,447.92,101.11,449.35,101.12,451.1z"/>
				<path class="st0" d="M346.76,279.02c0.02,1.66-1.31,3.07-2.97,3.12c-1.74,0.06-3.17-1.35-3.15-3.12
					c0.02-1.71,1.34-3.01,3.05-3.01C345.37,276.02,346.74,277.35,346.76,279.02z"/>
				<path class="st0" d="M514.01,308.38c0.06,1.67-1.29,3.08-2.97,3.12c-1.73,0.05-3.07-1.22-3.12-2.94
					c-0.04-1.7,1.26-3.1,2.94-3.15C512.52,305.36,513.96,306.72,514.01,308.38z"/>
				<path class="st0" d="M129.74,389.35c1.53-0.03,2.84,1.19,2.88,2.69c0.04,1.46-1.26,2.83-2.74,2.87c-1.5,0.05-2.8-1.21-2.83-2.74
					C127.01,390.6,128.16,389.38,129.74,389.35z"/>
				<path class="st0" d="M277.39,291.68c-1.51-0.04-2.73-1.35-2.69-2.88c0.04-1.57,1.25-2.72,2.83-2.69
					c1.53,0.04,2.78,1.34,2.74,2.83C280.22,290.43,278.86,291.73,277.39,291.68z"/>
				<path class="st0" d="M676,488.22c-0.05,1.49-1.43,2.79-2.9,2.72c-1.52-0.07-2.71-1.42-2.62-2.96c0.08-1.49,1.26-2.58,2.76-2.57
					C674.78,485.42,676.05,486.71,676,488.22z"/>
				<path class="st0" d="M569.94,337.8c1.45-0.02,2.65,1.14,2.7,2.6c0.04,1.47-1.07,2.68-2.54,2.74c-1.55,0.07-2.82-1.15-2.8-2.68
					C567.3,339.02,568.5,337.82,569.94,337.8z"/>
				<path class="st0" d="M101.64,432.76c-1.5,0.02-2.66-1.11-2.68-2.6c-0.02-1.49,1.13-2.68,2.6-2.7c1.44-0.02,2.68,1.18,2.71,2.62
					C104.28,431.53,103.11,432.74,101.64,432.76z"/>
				<path class="st0" d="M182.84,339.36c-1.46,0.02-2.65-1.17-2.66-2.64c-0.01-1.5,1.13-2.65,2.62-2.66
					c1.48-0.01,2.67,1.16,2.68,2.62C185.5,338.11,184.28,339.34,182.84,339.36z"/>
				<path class="st0" d="M322.9,277.81c-1.44,0.01-2.54-1.05-2.58-2.48c-0.03-1.41,1.04-2.59,2.43-2.67
					c1.41-0.08,2.74,1.2,2.72,2.62C325.46,276.66,324.3,277.8,322.9,277.81z"/>
				<path class="st0" d="M204.68,319.51c-0.02-1.44,1.04-2.54,2.48-2.58c1.41-0.03,2.59,1.04,2.67,2.43
					c0.08,1.41-1.2,2.74-2.62,2.73C205.84,322.07,204.7,320.91,204.68,319.51z"/>
				<path class="st0" d="M627.73,393.33c-0.01,1.42-1.09,2.5-2.51,2.51c-1.39,0.01-2.55-1.09-2.6-2.46
					c-0.05-1.41,1.23-2.69,2.64-2.65C626.63,390.78,627.74,391.94,627.73,393.33z"/>
				<path class="st0" d="M534.49,312.22c0.03,1.39-1.05,2.57-2.42,2.63c-1.41,0.07-2.71-1.19-2.69-2.61
					c0.02-1.37,1.17-2.49,2.56-2.5C533.36,309.74,534.46,310.81,534.49,312.22z"/>
				<path class="st0" d="M644.93,417.95c-0.02,1.38-1.16,2.53-2.52,2.55c-1.42,0.01-2.67-1.3-2.59-2.7
					c0.08-1.37,1.26-2.44,2.65-2.41C643.89,415.43,644.95,416.54,644.93,417.95z"/>
				<path class="st0" d="M158.11,356.22c-1.26-0.05-2.23-1.06-2.23-2.33c0-1.33,1.12-2.43,2.43-2.36c1.21,0.06,2.27,1.16,2.27,2.36
					C160.58,355.2,159.45,356.27,158.11,356.22z"/>
				<path class="st0" d="M231.91,304.6c-1.27,0.04-2.31-0.9-2.4-2.16c-0.09-1.34,0.94-2.5,2.25-2.54c1.26-0.04,2.46,1.13,2.44,2.4
					C234.19,303.53,233.16,304.56,231.91,304.6z"/>
				<path class="st0" d="M607.96,371.01c-1.27-0.02-2.27-1.03-2.28-2.3c-0.01-1.26,1-2.31,2.24-2.35c1.3-0.04,2.46,1.12,2.41,2.42
					C610.28,370.03,609.21,371.03,607.96,371.01z"/>
				<path class="st0" d="M659.58,440.22c1.26-0.01,2.32,0.99,2.36,2.24c0.05,1.3-1.11,2.46-2.41,2.41c-1.25-0.04-2.25-1.1-2.24-2.36
					C657.31,441.24,658.32,440.23,659.58,440.22z"/>
				<path class="st0" d="M428.81,272.9c-0.02-1.27,0.96-2.3,2.22-2.35c1.33-0.05,2.46,1.05,2.42,2.38
					c-0.03,1.23-1.11,2.28-2.34,2.27C429.86,275.19,428.83,274.15,428.81,272.9z"/>
				<path class="st0" d="M410.18,271.45c-1.24,0.03-2.17-0.82-2.25-2.04c-0.08-1.28,0.89-2.36,2.13-2.39
					c1.21-0.03,2.31,1.06,2.29,2.27C412.33,270.45,411.36,271.42,410.18,271.45z"/>
				<path class="st0" d="M451.97,274.48c1.26,0.02,2.12,0.89,2.14,2.15c0.02,1.27-1.01,2.32-2.25,2.28
					c-1.14-0.03-2.15-1.05-2.18-2.19C449.65,275.48,450.7,274.45,451.97,274.48z"/>
				<path class="st0" d="M69.64,486.98c1.19,0.03,2.16,1.03,2.15,2.19c-0.01,1.21-1.17,2.29-2.37,2.2
					c-1.17-0.09-2.06-1.12-2.01-2.32C67.46,487.82,68.41,486.94,69.64,486.98z"/>
				<path class="st0" d="M391.39,265.54c-0.04,1.11-0.96,2-2.07,2.01c-1.19,0.01-2.15-0.98-2.1-2.17c0.04-1.1,0.97-2,2.07-2.01
					C390.47,263.36,391.43,264.35,391.39,265.54z"/>
				<path class="st0" d="M472.9,278.19c1.12-0.02,2.02,0.85,2.07,1.99c0.04,1.14-0.79,2.06-1.92,2.13c-1.2,0.07-2.2-0.88-2.19-2.07
					C470.88,279.14,471.81,278.21,472.9,278.19z"/>
				<path class="st0" d="M107.12,409.23c0.05,1.11-0.86,2.07-1.95,2.07c-0.98-0.01-1.91-0.89-1.96-1.88
					c-0.06-1.08,0.86-2.03,1.98-2.03C106.26,407.39,107.08,408.16,107.12,409.23z"/>
				<path class="st0" d="M304,271.72c-0.03,1.03-0.89,1.9-1.89,1.92c-1.03,0.02-2.05-1-2.02-2.03c0.03-1.08,1.03-1.96,2.13-1.88
					C303.28,269.81,304.03,270.65,304,271.72z"/>
				<path class="st0" d="M75.32,468.4c-0.04,1.02-0.93,1.86-1.96,1.85c-1.13-0.01-1.99-0.95-1.89-2.08
					c0.08-1.03,1.01-1.83,2.02-1.77C74.49,466.47,75.35,467.42,75.32,468.4z"/>
				<path class="st0" d="M133.65,369.16c1.02,0.03,1.86,0.91,1.86,1.94c0,1.13-0.93,1.99-2.06,1.91c-1.03-0.08-1.84-0.99-1.78-2.01
					C131.72,370,132.66,369.13,133.65,369.16z"/>
				<path class="st0" d="M592.55,344.3c0,0.98-0.77,1.79-1.73,1.81c-0.99,0.02-1.92-0.93-1.86-1.92c0.06-0.96,0.88-1.7,1.87-1.67
					C591.84,342.55,592.56,343.28,592.55,344.3z"/>
				<path class="st0" d="M368.28,260.09c1.02-0.01,1.76,0.71,1.78,1.73c0.02,0.99-0.71,1.81-1.67,1.87
					c-0.99,0.06-1.95-0.87-1.92-1.86C366.49,260.86,367.29,260.09,368.28,260.09z"/>
				<path class="st0" d="M554.53,315.79c0.05,0.99-0.66,1.83-1.62,1.91c-0.98,0.09-1.97-0.81-1.97-1.81
					c-0.01-0.95,0.79-1.75,1.77-1.78C553.72,314.07,554.48,314.78,554.53,315.79z"/>
				<path class="st0" d="M495.54,283.86c0.01,0.92-0.86,1.79-1.77,1.8c-0.95,0.01-1.76-0.79-1.77-1.77
					c-0.01-1.01,0.73-1.76,1.74-1.77C494.72,282.12,495.53,282.9,495.54,283.86z"/>
				<path class="st0" d="M678.58,467.1c0.02,0.99-0.71,1.81-1.67,1.87c-0.99,0.06-1.94-0.87-1.92-1.86
					c0.02-0.96,0.83-1.73,1.81-1.73C677.83,465.36,678.56,466.08,678.58,467.1z"/>
				<path class="st0" d="M258.27,285.03c0.02,0.91-0.81,1.8-1.72,1.86c-1.02,0.06-1.9-0.81-1.87-1.87c0.02-1.02,0.76-1.73,1.78-1.73
					C257.45,283.3,258.25,284.07,258.27,285.03z"/>
				<path class="st0" d="M77,445.86c0.75,0.01,1.37,0.62,1.41,1.38c0.04,0.85-0.61,1.53-1.46,1.51c-0.76-0.02-1.39-0.62-1.43-1.37
					C75.48,446.58,76.18,445.86,77,445.86z"/>
				<path class="st0" d="M348.66,257.44c0.36,1.05,0.09,1.73-0.73,1.89c-0.48,0.09-1.16-0.13-1.54-0.46
					c-0.62-0.52-0.34-1.31,0.44-1.41C347.45,257.37,348.09,257.44,348.66,257.44z"/>
				<path class="st0" d="M187.65,315.19c-0.17,0.56-0.16,1.32-0.54,1.65c-0.62,0.55-1.36,0.34-1.96-0.66
					c0.63-0.45,1.26-0.9,1.89-1.35C187.25,314.94,187.45,315.07,187.65,315.19z"/>
				<path class="st0" d="M513.84,286.95c0.69,0.31,1.38,0.62,2.05,0.93c-0.27,0.96-0.86,1.23-1.56,0.96
					C513.56,288.53,513.29,287.89,513.84,286.95z"/>
				<path class="st0" d="M646.38,398.33c-1.2-0.28-1.51-0.69-1.34-1.76C645.51,397.18,645.82,397.59,646.38,398.33z"/>
			</g>
		</g>
		<g>
			<g>
				<path class="st7" d="M750,353.88v145.4H509.8c0,0,18.26-34.29,57.63-17.15c0,0-14.49-26.09,7.08-50.38
					c21.57-24.3,48.01-7.17,48.01-7.17s1.97-14.42,15.53-19.22c15.82-5.36,26.84,5.84,26.84,5.84s-4.52-32.59,27.12-52.03
					C722.94,341.99,750,353.88,750,353.88z"/>
				<path class="st8" d="M509.8,499.28c1.29-2.45,2.87-4.75,4.61-6.92c1.74-2.17,3.68-4.2,5.79-6.04c2.11-1.84,4.4-3.5,6.84-4.9
					c2.45-1.4,5.05-2.55,7.75-3.42c1.35-0.46,2.73-0.77,4.12-1.1c1.4-0.24,2.8-0.52,4.22-0.62c1.42-0.18,2.84-0.18,4.27-0.22
					c0.71,0.01,1.42,0.06,2.13,0.08l1.07,0.05l1.06,0.12c5.67,0.58,11.2,2.12,16.43,4.28l-2.13,2.35c-1.17-2.16-2.01-4.25-2.75-6.47
					c-0.73-2.2-1.31-4.44-1.73-6.72c-0.85-4.56-1.02-9.26-0.5-13.91c0.26-2.33,0.74-4.62,1.36-6.89c0.64-2.26,1.49-4.45,2.45-6.58
					c1.98-4.25,4.6-8.17,7.61-11.7c3.01-3.56,6.58-6.73,10.64-9.21c4.06-2.49,8.68-4.14,13.42-4.82c4.75-0.67,9.58-0.41,14.19,0.62
					c2.31,0.51,4.57,1.21,6.76,2.06c1.1,0.42,2.18,0.89,3.25,1.4c0.54,0.25,1.06,0.52,1.59,0.8c0.54,0.29,1.02,0.56,1.63,0.93
					l-3.89,1.78c0.12-0.76,0.24-1.32,0.4-1.94c0.14-0.61,0.33-1.21,0.51-1.8c0.38-1.18,0.84-2.34,1.35-3.47
					c1.04-2.25,2.34-4.42,3.97-6.34c1.63-1.92,3.51-3.66,5.65-5.04c0.52-0.36,1.1-0.63,1.64-0.95c0.55-0.31,1.1-0.62,1.7-0.85
					l1.76-0.73c0.59-0.23,1.2-0.36,1.79-0.54c0.6-0.16,1.2-0.35,1.81-0.48l1.84-0.31l0.92-0.15c0.31-0.04,0.62-0.05,0.93-0.07
					l1.87-0.11c2.5,0.03,5.02,0.23,7.42,0.91c2.41,0.64,4.72,1.57,6.88,2.77c1.08,0.6,2.12,1.25,3.13,1.98
					c0.5,0.36,1,0.73,1.48,1.13c0.5,0.41,0.93,0.78,1.47,1.32l-3.97,1.95c-0.09-0.78-0.13-1.41-0.16-2.09
					c-0.03-0.67-0.05-1.34-0.05-2c0-1.33,0.04-2.66,0.14-3.97c0.18-2.64,0.55-5.26,1.09-7.84c0.54-2.58,1.23-5.13,2.13-7.62
					c0.9-2.48,1.97-4.9,3.19-7.23c1.22-2.34,2.65-4.56,4.18-6.7c1.55-2.13,3.26-4.13,5.07-6.03c3.66-3.78,7.8-6.98,12.28-9.71
					c0.28-0.17,0.55-0.35,0.84-0.51l0.88-0.42l1.76-0.85c1.18-0.55,2.34-1.15,3.53-1.66l3.63-1.39l1.81-0.69l1.86-0.55l3.72-1.07
					l3.79-0.78c0.63-0.12,1.26-0.27,1.9-0.37l1.92-0.24l1.92-0.24c0.64-0.09,1.28-0.16,1.92-0.18l3.85-0.22
					c1.29-0.01,2.57,0.03,3.85,0.04c2.56,0.11,5.12,0.31,7.65,0.69c5.06,0.72,10.06,2.01,14.72,4.03c-2.39-0.87-4.86-1.47-7.33-1.98
					c-2.49-0.45-4.99-0.83-7.51-1.03c-2.51-0.23-5.03-0.28-7.55-0.24l-3.76,0.17l-3.74,0.39c-0.63,0.05-1.24,0.15-1.86,0.27
					l-1.85,0.33l-1.85,0.33c-0.61,0.12-1.22,0.3-1.82,0.45l-3.63,0.93l-3.55,1.2l-1.77,0.59l-1.72,0.73l-3.44,1.46
					c-1.12,0.54-2.2,1.15-3.3,1.71l-1.64,0.86l-0.82,0.43c-0.26,0.16-0.51,0.34-0.77,0.51c-4.09,2.72-7.94,5.92-11.26,9.52
					c-1.64,1.83-3.19,3.73-4.57,5.76c-1.36,2.03-2.64,4.13-3.71,6.32c-2.14,4.39-3.71,9.06-4.62,13.86
					c-0.46,2.4-0.76,4.83-0.88,7.26c-0.07,1.22-0.09,2.43-0.07,3.64c0.01,0.6,0.03,1.21,0.07,1.8c0.03,0.58,0.09,1.22,0.16,1.7
					l0.84,6.47l-4.81-4.51c-0.28-0.26-0.71-0.63-1.1-0.94c-0.4-0.32-0.82-0.63-1.25-0.93c-0.86-0.6-1.76-1.14-2.68-1.63
					c-1.85-0.99-3.81-1.72-5.81-2.24c-2-0.56-4.07-0.69-6.13-0.72l-1.54,0.1c-0.26,0.02-0.52,0.02-0.77,0.06l-0.76,0.13l-1.53,0.26
					c-0.5,0.11-1,0.28-1.5,0.41c-0.49,0.15-1.01,0.26-1.48,0.44l-1.4,0.59c-0.48,0.17-0.91,0.43-1.35,0.68
					c-0.43,0.26-0.9,0.47-1.31,0.76c-1.7,1.11-3.19,2.5-4.5,4.06c-1.32,1.56-2.38,3.36-3.24,5.24c-0.43,0.95-0.8,1.92-1.12,2.91
					c-0.15,0.5-0.3,0.99-0.42,1.49c-0.13,0.48-0.24,1.03-0.3,1.4l-0.66,3.82l-3.23-2.04c-0.34-0.21-0.83-0.5-1.27-0.73
					c-0.45-0.25-0.92-0.49-1.39-0.71c-0.94-0.46-1.91-0.88-2.89-1.27c-1.96-0.77-3.98-1.4-6.02-1.87
					c-4.09-0.94-8.31-1.18-12.41-0.62c-4.1,0.56-8.05,1.98-11.63,4.09c-3.58,2.12-6.83,4.88-9.64,8.09
					c-2.83,3.21-5.26,6.74-7.12,10.55c-1.82,3.83-3.1,7.91-3.71,12.12c-0.58,4.21-0.55,8.52,0.12,12.76
					c0.33,2.12,0.82,4.22,1.44,6.27c0.3,1.03,0.66,2.04,1.04,3.04c0.37,0.98,0.81,2.02,1.24,2.88l2.17,4.31l-4.3-1.97
					c-4.91-2.25-10.09-3.9-15.42-4.64l-1-0.15l-1-0.08c-0.67-0.05-1.34-0.12-2.01-0.16c-1.34,0-2.69-0.09-4.02,0.02
					c-1.35,0.03-2.67,0.23-4.01,0.39c-1.32,0.25-2.65,0.48-3.95,0.85c-5.21,1.4-10.14,3.92-14.46,7.27
					C516.61,490.55,512.76,494.59,509.8,499.28z"/>
				<path class="st8" d="M560.71,499.28c-0.97-3.03-0.46-6.52,1.04-9.5c0.75-1.5,1.75-2.88,2.93-4.07c0.53-0.62,1.27-1.17,1.99-1.73
					c0.36-0.28,0.78-0.46,1.17-0.69c0.4-0.23,0.8-0.43,1.24-0.57c1.69-0.71,3.5-0.88,5.26-0.88l1.31,0.06l1.28,0.19
					c0.43,0.05,0.85,0.16,1.26,0.26c0.41,0.11,0.84,0.18,1.24,0.33c1.64,0.5,3.19,1.2,4.67,2.1c0.74,0.45,1.46,0.95,2.16,1.55
					c0.35,0.31,0.69,0.61,1.03,1.03l0.25,0.29c0.08,0.09,0.17,0.2,0.25,0.35c0.17,0.27,0.33,0.54,0.48,0.82l-3.68-0.1
					c0.34-0.61,0.63-1.04,0.99-1.52c0.34-0.47,0.71-0.91,1.09-1.34c0.77-0.86,1.63-1.65,2.58-2.35c1.89-1.39,4.31-2.33,6.74-2.25
					c1.21,0.04,2.38,0.28,3.46,0.69c1.07,0.43,2.05,0.98,2.93,1.65c1.78,1.28,3.18,2.92,4.36,4.65c-1.69-1.23-3.42-2.37-5.23-3.16
					c-0.9-0.4-1.83-0.66-2.73-0.86c-0.91-0.15-1.81-0.19-2.67-0.07c-1.72,0.21-3.26,1.05-4.6,2.23c-0.67,0.59-1.28,1.27-1.85,1.98
					c-0.28,0.36-0.55,0.74-0.79,1.12c-0.23,0.37-0.5,0.81-0.65,1.11l-1.14,2.29l-2.54-2.39c-0.05-0.05-0.1-0.1-0.13-0.16
					c0-0.05-0.16-0.17-0.23-0.25c-0.15-0.19-0.4-0.38-0.64-0.58c-0.48-0.39-1.04-0.78-1.63-1.12c-1.18-0.67-2.45-1.3-3.78-1.71
					c-2.63-0.87-5.42-1.2-7.9-0.5c-0.32,0.05-0.61,0.19-0.91,0.31c-0.29,0.13-0.61,0.21-0.88,0.39c-0.54,0.35-1.11,0.64-1.67,1.12
					c-0.58,0.42-1.07,0.93-1.61,1.41c-0.48,0.52-0.98,1.04-1.41,1.62C562.01,493.29,560.84,496.14,560.71,499.28z"/>
				<path class="st8" d="M750,456.36v3.31c-0.42-0.18-0.85-0.35-1.3-0.48c-0.9-0.32-1.72-0.58-2.58-0.7
					c-0.86-0.13-1.72-0.19-2.58-0.12c-3.46,0.22-6.82,1.86-9.69,4.12c-1.45,1.13-2.76,2.43-3.92,3.82c-0.58,0.7-1.1,1.43-1.53,2.16
					c-0.44,0.69-0.78,1.53-0.82,1.89l-0.5,4.08l-2.92-2.73c-0.36-0.33-0.88-0.75-1.35-1.1c-0.48-0.36-0.98-0.7-1.5-1.03
					c-1.03-0.63-2.1-1.18-3.21-1.6c-2.21-0.84-4.57-1.14-6.82-0.58c-1.13,0.27-2.24,0.73-3.28,1.36c-0.49,0.36-1.03,0.68-1.49,1.09
					c-0.5,0.38-0.96,0.81-1.42,1.26c-1.81,1.81-3.34,3.98-4.75,6.26c0.19-0.64,0.42-1.28,0.63-1.92c0.23-0.64,0.51-1.25,0.76-1.87
					c0.3-0.61,0.6-1.23,0.92-1.83c0.37-0.58,0.69-1.2,1.11-1.75c0.79-1.15,1.75-2.21,2.84-3.15c1.12-0.92,2.4-1.69,3.81-2.24
					c2.83-1.08,6.04-0.97,8.85-0.12c1.42,0.42,2.76,0.99,4.03,1.69c0.41,0.23,0.81,0.46,1.21,0.72c0.09-0.18,0.19-0.36,0.28-0.53
					c0.57-1,1.2-1.89,1.89-2.74c1.36-1.69,2.92-3.17,4.64-4.48c1.71-1.29,3.59-2.41,5.64-3.2c2.04-0.8,4.27-1.29,6.53-1.25
					c2.24,0,4.57,0.63,6.43,1.6C749.94,456.34,749.97,456.35,750,456.36z"/>
				<path class="st8" d="M657.83,436.08c-1.27-4.05-1.15-8.62,0.39-12.83c0.78-2.1,1.9-4.14,3.42-5.85l0.55-0.66
					c0.19-0.21,0.41-0.4,0.62-0.59l1.26-1.17c0.45-0.35,0.93-0.67,1.39-1c0.47-0.33,0.93-0.67,1.46-0.92l1.55-0.79
					c0.51-0.27,1.09-0.41,1.64-0.61c1.09-0.42,2.26-0.57,3.4-0.77c2.31-0.21,4.63-0.04,6.8,0.54c4.31,1.23,8.1,3.63,10.85,6.87
					c-3.8-1.83-7.67-3.13-11.48-3.6c-1.91-0.19-3.78-0.13-5.58,0.17c-0.88,0.24-1.79,0.36-2.61,0.75c-0.42,0.18-0.87,0.27-1.26,0.5
					l-1.21,0.64c-0.42,0.18-0.8,0.46-1.18,0.72l-1.16,0.79l-1.06,0.9c-0.17,0.15-0.36,0.29-0.53,0.45l-0.48,0.5
					c-1.34,1.29-2.42,2.84-3.35,4.51C659.37,427.96,658.3,431.9,657.83,436.08z"/>
			</g>
			<g>
				<path class="st7" d="M0,353.88v145.4h240.2c0,0-18.26-34.29-57.63-17.15c0,0,14.49-26.09-7.08-50.38
					c-21.57-24.3-48.01-7.17-48.01-7.17s-1.97-14.42-15.53-19.22c-15.82-5.36-26.84,5.84-26.84,5.84s4.52-32.59-27.12-52.03
					C27.06,341.99,0,353.88,0,353.88z"/>
				<path class="st8" d="M240.2,499.28c-1.29-2.45-2.87-4.75-4.61-6.92c-1.74-2.17-3.68-4.2-5.79-6.04c-2.11-1.84-4.4-3.5-6.84-4.9
					c-2.45-1.4-5.05-2.55-7.75-3.42c-1.35-0.46-2.73-0.77-4.12-1.1c-1.4-0.24-2.8-0.52-4.22-0.62c-1.42-0.18-2.84-0.18-4.27-0.22
					c-0.71,0.01-1.42,0.06-2.13,0.08l-1.07,0.05l-1.06,0.12c-5.67,0.58-11.2,2.12-16.43,4.28l2.13,2.35
					c1.17-2.16,2.01-4.25,2.75-6.47c0.73-2.2,1.31-4.44,1.73-6.72c0.85-4.56,1.02-9.26,0.5-13.91c-0.26-2.33-0.74-4.62-1.36-6.89
					c-0.64-2.26-1.49-4.45-2.45-6.58c-1.98-4.25-4.6-8.17-7.61-11.7c-3.01-3.56-6.58-6.73-10.64-9.21
					c-4.06-2.49-8.68-4.14-13.42-4.82c-4.75-0.67-9.58-0.41-14.19,0.62c-2.31,0.51-4.57,1.21-6.76,2.06
					c-1.1,0.42-2.18,0.89-3.25,1.4c-0.54,0.25-1.06,0.52-1.59,0.8c-0.54,0.29-1.02,0.56-1.63,0.93l3.89,1.78
					c-0.12-0.76-0.24-1.32-0.4-1.94c-0.14-0.61-0.33-1.21-0.51-1.8c-0.38-1.18-0.84-2.34-1.35-3.47c-1.04-2.25-2.34-4.42-3.97-6.34
					c-1.63-1.92-3.51-3.66-5.65-5.04c-0.52-0.36-1.1-0.63-1.64-0.95c-0.55-0.31-1.1-0.62-1.7-0.85l-1.76-0.73
					c-0.59-0.23-1.2-0.36-1.79-0.54c-0.6-0.16-1.2-0.35-1.81-0.48l-1.84-0.31l-0.92-0.15c-0.31-0.04-0.62-0.05-0.93-0.07l-1.87-0.11
					c-2.5,0.03-5.02,0.23-7.42,0.91c-2.41,0.64-4.72,1.57-6.88,2.77c-1.08,0.6-2.12,1.25-3.13,1.98c-0.5,0.36-1,0.73-1.48,1.13
					c-0.5,0.41-0.93,0.78-1.47,1.32l3.97,1.95c0.09-0.78,0.13-1.41,0.16-2.09c0.03-0.67,0.05-1.34,0.05-2
					c0-1.33-0.04-2.66-0.14-3.97c-0.18-2.64-0.55-5.26-1.09-7.84c-0.54-2.58-1.23-5.13-2.13-7.62c-0.9-2.48-1.97-4.9-3.19-7.23
					c-1.22-2.34-2.65-4.56-4.18-6.7c-1.55-2.13-3.26-4.13-5.07-6.03c-3.66-3.78-7.8-6.98-12.28-9.71c-0.28-0.17-0.55-0.35-0.84-0.51
					l-0.88-0.42l-1.76-0.85c-1.18-0.55-2.34-1.15-3.53-1.66l-3.63-1.39l-1.81-0.69l-1.86-0.55l-3.72-1.07l-3.79-0.78
					c-0.63-0.12-1.26-0.27-1.9-0.37l-1.92-0.24l-1.92-0.24c-0.64-0.09-1.28-0.16-1.92-0.18l-3.85-0.22
					c-1.29-0.01-2.57,0.03-3.85,0.04c-2.56,0.11-5.12,0.31-7.66,0.69c-5.06,0.72-10.06,2.01-14.72,4.03
					c2.39-0.87,4.86-1.47,7.33-1.98c2.49-0.45,4.99-0.83,7.51-1.03c2.51-0.23,5.03-0.28,7.55-0.24l3.76,0.17l3.74,0.39
					c0.63,0.05,1.24,0.15,1.86,0.27l1.85,0.33l1.85,0.33c0.61,0.12,1.22,0.3,1.82,0.45l3.63,0.93l3.55,1.2l1.77,0.59l1.72,0.73
					l3.44,1.46c1.12,0.54,2.2,1.15,3.3,1.71l1.64,0.86l0.82,0.43c0.26,0.16,0.51,0.34,0.77,0.51c4.09,2.72,7.94,5.92,11.26,9.52
					c1.64,1.83,3.19,3.73,4.57,5.76c1.36,2.03,2.64,4.13,3.71,6.32c2.14,4.39,3.71,9.06,4.62,13.86c0.46,2.4,0.76,4.83,0.88,7.26
					c0.07,1.22,0.09,2.43,0.07,3.64c-0.01,0.6-0.03,1.21-0.07,1.8c-0.03,0.58-0.09,1.22-0.16,1.7l-0.84,6.47l4.81-4.51
					c0.28-0.26,0.71-0.63,1.1-0.94c0.4-0.32,0.82-0.63,1.25-0.93c0.86-0.6,1.76-1.14,2.68-1.63c1.85-0.99,3.81-1.72,5.81-2.24
					c2-0.56,4.07-0.69,6.13-0.72l1.54,0.1c0.26,0.02,0.51,0.02,0.77,0.06l0.76,0.13l1.53,0.26c0.5,0.11,1,0.28,1.5,0.41
					c0.49,0.15,1.01,0.26,1.48,0.44l1.4,0.59c0.48,0.17,0.91,0.43,1.35,0.68c0.43,0.26,0.9,0.47,1.31,0.76
					c1.7,1.11,3.19,2.5,4.5,4.06c1.32,1.56,2.38,3.36,3.24,5.24c0.43,0.95,0.8,1.92,1.12,2.91c0.15,0.5,0.3,0.99,0.42,1.49
					c0.13,0.48,0.24,1.03,0.3,1.4l0.66,3.82l3.23-2.04c0.34-0.21,0.83-0.5,1.27-0.73c0.45-0.25,0.92-0.49,1.39-0.71
					c0.94-0.46,1.91-0.88,2.89-1.27c1.96-0.77,3.98-1.4,6.02-1.87c4.09-0.94,8.31-1.18,12.41-0.62c4.1,0.56,8.05,1.98,11.63,4.09
					c3.58,2.12,6.83,4.88,9.64,8.09c2.83,3.21,5.26,6.74,7.12,10.55c1.82,3.83,3.1,7.91,3.71,12.12c0.58,4.21,0.55,8.52-0.12,12.76
					c-0.33,2.12-0.81,4.22-1.44,6.27c-0.31,1.03-0.66,2.04-1.04,3.04c-0.37,0.98-0.81,2.02-1.24,2.88l-2.17,4.31l4.3-1.97
					c4.91-2.25,10.09-3.9,15.42-4.64l1-0.15l1-0.08c0.67-0.05,1.34-0.12,2.01-0.16c1.34,0,2.69-0.09,4.02,0.02
					c1.35,0.03,2.67,0.23,4.01,0.39c1.32,0.25,2.65,0.48,3.95,0.85c5.21,1.4,10.14,3.92,14.46,7.27
					C233.39,490.55,237.24,494.59,240.2,499.28z"/>
				<path class="st8" d="M189.29,499.28c0.97-3.03,0.46-6.52-1.04-9.5c-0.75-1.5-1.75-2.88-2.93-4.07
					c-0.53-0.62-1.27-1.17-1.99-1.73c-0.36-0.28-0.78-0.46-1.17-0.69c-0.4-0.23-0.8-0.43-1.24-0.57c-1.69-0.71-3.5-0.88-5.26-0.88
					l-1.31,0.06l-1.28,0.19c-0.43,0.05-0.85,0.16-1.26,0.26c-0.41,0.11-0.84,0.18-1.24,0.33c-1.64,0.5-3.19,1.2-4.67,2.1
					c-0.74,0.45-1.46,0.95-2.16,1.55c-0.35,0.31-0.69,0.61-1.03,1.03l-0.25,0.29c-0.08,0.09-0.17,0.2-0.25,0.35
					c-0.17,0.27-0.33,0.54-0.48,0.82l3.68-0.1c-0.34-0.61-0.63-1.04-0.99-1.52c-0.34-0.47-0.71-0.91-1.09-1.34
					c-0.77-0.86-1.63-1.65-2.58-2.35c-1.89-1.39-4.31-2.33-6.74-2.25c-1.21,0.04-2.38,0.28-3.46,0.69
					c-1.07,0.43-2.05,0.98-2.93,1.65c-1.78,1.28-3.18,2.92-4.36,4.65c1.7-1.23,3.42-2.37,5.23-3.16c0.9-0.4,1.83-0.66,2.73-0.86
					c0.91-0.15,1.81-0.19,2.67-0.07c1.72,0.21,3.26,1.05,4.6,2.23c0.67,0.59,1.28,1.27,1.85,1.98c0.28,0.36,0.55,0.74,0.79,1.12
					c0.23,0.37,0.5,0.81,0.65,1.11l1.14,2.29l2.54-2.39c0.05-0.05,0.1-0.1,0.13-0.16c0-0.05,0.16-0.17,0.23-0.25
					c0.15-0.19,0.4-0.38,0.64-0.58c0.48-0.39,1.04-0.78,1.63-1.12c1.18-0.67,2.45-1.3,3.78-1.71c2.63-0.87,5.42-1.2,7.9-0.5
					c0.32,0.05,0.61,0.19,0.91,0.31c0.29,0.13,0.61,0.21,0.88,0.39c0.54,0.35,1.11,0.64,1.67,1.12c0.59,0.42,1.07,0.93,1.61,1.41
					c0.48,0.52,0.98,1.04,1.41,1.62C187.99,493.29,189.16,496.14,189.29,499.28z"/>
				<path class="st8" d="M0,456.36v3.31c0.42-0.18,0.85-0.35,1.3-0.48c0.9-0.32,1.72-0.58,2.58-0.7c0.86-0.13,1.72-0.19,2.58-0.12
					c3.46,0.22,6.82,1.86,9.69,4.12c1.45,1.13,2.76,2.43,3.92,3.82c0.58,0.7,1.1,1.43,1.53,2.16c0.44,0.69,0.78,1.53,0.82,1.89
					l0.5,4.08l2.92-2.73c0.36-0.33,0.88-0.75,1.35-1.1c0.48-0.36,0.98-0.7,1.5-1.03c1.03-0.63,2.1-1.18,3.21-1.6
					c2.21-0.84,4.57-1.14,6.82-0.58c1.13,0.27,2.24,0.73,3.28,1.36c0.49,0.36,1.03,0.68,1.49,1.09c0.5,0.38,0.96,0.81,1.42,1.26
					c1.81,1.81,3.34,3.98,4.75,6.26c-0.19-0.64-0.42-1.28-0.63-1.92c-0.23-0.64-0.51-1.25-0.76-1.87c-0.3-0.61-0.6-1.23-0.92-1.83
					c-0.37-0.58-0.69-1.2-1.11-1.75c-0.79-1.15-1.75-2.21-2.84-3.15c-1.12-0.92-2.4-1.69-3.81-2.24c-2.83-1.08-6.04-0.97-8.85-0.12
					c-1.42,0.42-2.76,0.99-4.03,1.69c-0.41,0.23-0.81,0.46-1.21,0.72c-0.09-0.18-0.19-0.36-0.28-0.53c-0.57-1-1.2-1.89-1.89-2.74
					c-1.36-1.69-2.92-3.17-4.64-4.48c-1.71-1.29-3.59-2.41-5.64-3.2c-2.04-0.8-4.27-1.29-6.53-1.25c-2.24,0-4.57,0.63-6.43,1.6
					C0.06,456.34,0.03,456.35,0,456.36z"/>
				<path class="st8" d="M92.17,436.08c1.27-4.05,1.15-8.62-0.39-12.83c-0.78-2.1-1.9-4.14-3.42-5.85l-0.55-0.66
					c-0.19-0.21-0.41-0.4-0.62-0.59l-1.26-1.17c-0.45-0.35-0.93-0.67-1.39-1c-0.47-0.33-0.93-0.67-1.46-0.92l-1.55-0.79
					c-0.51-0.27-1.09-0.41-1.64-0.61c-1.09-0.42-2.26-0.57-3.4-0.77c-2.31-0.21-4.63-0.04-6.8,0.54c-4.31,1.23-8.1,3.63-10.85,6.87
					c3.8-1.83,7.67-3.13,11.48-3.6c1.91-0.19,3.78-0.13,5.58,0.17c0.88,0.24,1.79,0.36,2.61,0.75c0.42,0.18,0.87,0.27,1.26,0.5
					l1.21,0.64c0.42,0.18,0.8,0.46,1.18,0.72l1.16,0.79l1.06,0.9c0.17,0.15,0.36,0.29,0.53,0.45l0.48,0.5
					c1.34,1.29,2.42,2.84,3.35,4.51C90.63,427.96,91.7,431.9,92.17,436.08z"/>
			</g>
		</g>
		<g>
			<g>
				<polygon class="st8" points="509.55,219.69 571.5,127.32 559,120.27 				"/>
				<polygon class="st8" points="400.26,194.21 407.73,83.23 393.37,83.39 				"/>
				<polygon class="st8" points="183.13,287.95 109.94,204.2 99.9,214.46 				"/>
				<polygon class="st8" points="529.13,257.49 576.15,201.02 568.42,195.54 				"/>
				<polygon class="st8" points="599.79,338.26 665.75,305.88 660.92,297.72 				"/>
				<polygon class="st8" points="125.55,356.64 73.76,321.9 69.81,328.91 				"/>
				<polygon class="st8" points="191.56,250.9 156.92,199.04 150.6,204.02 				"/>
				<polygon class="st8" points="250.48,171.51 225.84,114.23 218.71,117.97 				"/>
				<polygon class="st8" points="291.53,207.81 271.43,137.13 262.54,140.42 				"/>
			</g>
			<polygon class="st9" points="579.03,90.63 589.74,101.62 604.86,99.03 597.72,112.61 604.85,126.18 589.74,123.59 579.03,134.57 
				576.82,119.39 563.07,112.6 576.82,105.81 			"/>
			<polygon class="st9" points="77.63,199.63 81.19,214.55 95.5,220.07 82.41,228.07 81.58,243.39 69.93,233.41 55.1,237.35 
				60.99,223.19 52.66,210.3 67.95,211.53 			"/>
			<polygon class="st9" points="689.2,278.59 693.45,288.63 704.14,290.82 695.9,297.97 697.12,308.81 687.77,303.18 677.84,307.69 
				680.3,297.07 672.94,289.02 683.81,288.07 			"/>
			<polygon class="st9" points="209.4,90.63 209.92,101.53 219.19,107.27 208.99,111.14 206.4,121.73 199.57,113.23 188.69,114.03 
				194.67,104.91 190.54,94.81 201.07,97.68 			"/>
		</g>
	</g>
</g>
</svg>
